<?xml version="1.0" encoding="utf-8"?>
<!-- Generator: Adobe Illustrator 19.0.0, SVG Export Plug-In . SVG Version: 6.00 Build 0)  -->
<svg version="1.1" id="layer" xmlns="http://www.w3.org/2000/svg" xmlns:xlink="http://www.w3.org/1999/xlink" x="0px" y="0px"
	 viewBox="-153 -46 652 652" style="enable-background:new -153 -46 652 652;" xml:space="preserve">
<style type="text/css">
	.st0{fill:#00703C;}
</style>
<polygon class="st0" points="177.9,298.1 459.6,298.1 459.6,302.2 176.5,302.2 "/>
<g>
	<path class="st0" d="M-43.1,298h209.9c0,0-0.2,0.3-0.2,1.6c0,1.7,1,2.6,1,2.6H-43.1V298z"/>
	<path class="st0" d="M-35.3,276.3l-2.7,6.7c-0.5,1.4-1.4,3.9-2.1,5.1c-0.7,1.3-1.2,1.4-2.7,1.7c-0.6,0.1-1.4,0.2-1.4,1
		c0,0.9,0.8,1,1.5,1c1.5,0,3.1-0.1,4.6-0.1c1.5,0,3.1,0.1,4.6,0.1c0.7,0,1.6-0.1,1.6-1c0-2.2-4.9-0.1-4.9-3.6c0-1.4,0.6-3.1,1.1-4.4
		c0.6-1.6,0.4-1.5,2.2-1.5h6.5c1.8,0,1.6-0.1,2.3,1.6l1.6,4c0.2,0.5,0.5,1.2,0.5,1.9c0,1.8-3.5,0.4-3.5,2.1c0,0.9,0.9,1,1.6,1
		c2.4,0,4.7-0.2,7.2-0.2c2,0,3.9,0.2,6,0.2c0.7,0,1.7,0,1.7-1c0-1.1-0.9-1-1.8-1c-1,0-1.4-0.3-2-1.2c-0.4-0.6-0.9-1.8-1.2-2.5
		l-10.2-23.7c-0.6-1.4-0.5-1.9-2.2-1.9c-2,0-2,0.9-2.7,2.5L-35.3,276.3z M-30,269.1l3.3,8.4c0.1,0.1,0.4,1,0.4,1.2
		c0,0.6-1.3,0.4-1.6,0.4h-4.3c-0.4,0-1.5,0.2-1.5-0.5c0-0.3,0.3-1.1,0.4-1.4L-30,269.1z"/>
	<path class="st0" d="M0.7,270c0-0.5,0.1-1.8-0.7-1.8c-1,0-1.5,0.5-1.8,0.9c-1.5,1.6-4.2,2.8-6.4,3.3c-0.5,0.1-2.1,0.3-2.1,1.2
		c0,0.8,0.8,0.8,1.5,0.8c2.3,0.3,2.2,1.4,2.2,3.5v7.2c0,1.1,0,2.9-0.3,3.9c-0.2,0.7-1.8,0.7-2.5,0.8c-0.6,0.1-1.2,0.4-1.2,1
		c0,0.8,0.8,0.9,1.5,0.9c2.1,0,4-0.1,6.1-0.1s4.1,0.1,6.2,0.1c0.6,0,1.5-0.1,1.5-0.9c0-0.6-0.6-0.9-1.2-1c-0.9-0.1-2.4-0.1-2.7-0.8
		c-0.3-1-0.2-2.8-0.2-3.9v-4.8c0-1.5-0.4-6.6,2.1-6.6c1.5,0,1.8,2.8,5,2.8c2.2,0,4.1-1.8,4.1-4c0-2.2-2.1-3.7-4.2-3.7
		c-4,0-6.1,3.7-7,3.7V270z"/>
	<path class="st0" d="M21.1,259.5c0-0.7,0.2-2.3-0.8-2.3c-0.5,0-1.3,0.3-1.8,0.5c-2.2,0.8-4.2,1.5-6.5,1.8c-0.7,0.1-2.1,0.2-2.1,1.1
		c0,0.5,0.6,0.7,1,0.7c2.8,0.4,2.6,0.9,2.6,3.6v22.9c0,1,0,2.3-0.1,3.3c-0.1,0.2-0.1,0.6-0.1,0.8c0,0.6,0.2,1,0.9,1
		c1.4,0,1.6-3,2.7-3c0.3,0,1.1,0.5,1.4,0.6c2.3,1.2,3.8,1.7,6.5,1.7c7.2,0,14.3-4.4,14.3-12.2c0-6.2-4.7-11.1-11.1-11.1
		c-1.5,0-2,0.2-3.4,0.8c-0.2,0.1-2.9,1.4-3.2,1.4c-0.1,0-0.3-0.1-0.3-0.2V259.5z M21.1,275.3c0-0.7,0-1.7,0.5-2.2
		c0.6-0.7,1.8-1.1,2.7-1.1c4.5,0,6.5,5.4,6.5,9.1c0,2-0.3,3.9-1.2,5.7c-0.9,1.8-2.6,3.6-4.7,3.6c-4.1,0-3.8-3.5-3.8-6.4V275.3z"/>
	<path class="st0" d="M53.8,292.1c7.2,0,14.1-4.6,14.1-12c0-3.3-1.8-6.4-4.5-8.4c-2.6-2-5.9-2.8-9.2-2.8c-6.8,0-14,4.5-14,11.7
		C40.3,287.8,46.7,292.1,53.8,292.1 M54.7,290.4c-4.9,0-6.5-7.7-6.5-11.3c0-3.3,1.3-8.7,5.5-8.7c2.2,0,3.9,1.9,4.8,3.7
		c1,2,1.5,4.9,1.5,7.1C60.1,284.5,59.1,290.4,54.7,290.4"/>
	<path class="st0" d="M80.1,270c0-0.5,0.1-1.8-0.7-1.8c-1,0-1.5,0.5-1.8,0.9c-1.5,1.6-4.2,2.8-6.4,3.3c-0.5,0.1-2.1,0.3-2.1,1.2
		c0,0.8,0.8,0.8,1.5,0.8c2.3,0.3,2.2,1.4,2.2,3.5v7.2c0,1.1,0,2.9-0.3,3.9c-0.2,0.7-1.8,0.7-2.5,0.8c-0.6,0.1-1.2,0.4-1.2,1
		c0,0.8,0.8,0.9,1.5,0.9c2.1,0,4-0.1,6.1-0.1c2.1,0,4.1,0.1,6.2,0.1c0.6,0,1.5-0.1,1.5-0.9c0-0.6-0.6-0.9-1.2-1
		c-0.9-0.1-2.4-0.1-2.7-0.8c-0.3-1-0.2-2.8-0.2-3.9v-4.8c0-1.5-0.4-6.6,2.1-6.6c1.5,0,1.8,2.8,5,2.8c2.2,0,4.1-1.8,4.1-4
		c0-2.2-2.1-3.7-4.2-3.7c-4,0-6.1,3.7-7,3.7V270z"/>
	<path class="st0" d="M107.4,285c0,3.3,0.2,4.1-3,4.8c-0.6,0.1-1.4,0.2-1.4,1c0,0.8,0.5,1.1,1.2,1.1c0.9,0,1.9-0.2,2.8-0.2
		c4.1,0,8.3,0.2,12.4,0.2c9.3,0,19.1-6.1,19.1-16.2c0-5.1-2.7-9.3-7-12c-4.1-2.5-8.5-3.2-13.2-3.2c-2.2,0-15.5,0.5-15.5,2.7
		c0,1.1,1.1,0.8,1.8,0.8c2.8-0.2,2.7,1.5,2.7,4V285z M115.6,266.7c0-3.3,0-4.1,3.6-4.1c7.3,0,10.9,6.9,10.9,13.4
		c0,3.1-0.7,6.8-2.6,9.4c-1.8,2.6-4.8,4.6-8,4.6c-4.1,0-3.9-2.9-3.9-6.2V266.7z"/>
	<path class="st0" d="M161.2,274.3c0-1.6-0.1-3.1-1.7-4.1c-1.7-1-4.3-1.4-6.3-1.4c-3.2,0-6.6,0.7-9.2,2.6c-1.2,0.8-3.4,3-3.4,4.5
		c0,0.8,0.8,1.1,1.5,1.1c1.2,0,3-0.5,4-1.1c1.3-0.5,1.6-1.2,2.1-2.4c0.6-1.5,1.8-3.1,3.6-3.1c2.6,0,2.2,3.4,2.2,5.1v1.6
		c0,0.1-0.2,0.2-0.5,0.5c-1.2,0.9-3,1.8-4.7,2.2c-1.7,0.5-4.3,1.7-5.7,2.6c-1.7,1.2-2.7,2.6-2.7,4.7c0,2.9,2.2,4.8,5.1,4.8
		c4.9,0,7.9-3.9,8.5-3.9c0.4,0,0.7,1,0.8,1.1c0.8,1.7,1.7,2.3,3.6,2.3c2.1,0,3.9-1,5.4-2.2c0.5-0.4,1.3-1.2,1.3-1.9
		c0-0.3-0.2-0.7-0.6-0.7c-0.4,0-0.9,0.4-1.2,0.6c-0.4,0.3-0.7,0.5-1.2,0.5c-1.4,0-1.1-2.3-1.1-3V274.3z M154.1,284
		c0,0.8-0.2,1.7-0.5,2.2c-0.6,1.1-2.3,1.9-3.5,1.9c-1.7,0-2.7-1.3-2.7-2.8c0-1.8,1.2-2.8,2.6-3.7c0.5-0.3,3.1-1.9,3.5-1.9
		c0.6,0,0.5,1.9,0.5,2.1V284z"/>
	<path class="st0" d="M181.5,282c-0.1,0.3-0.5,1.6-1,1.6c-0.4,0-0.9-1.3-1-1.5l-3.6-7.5c-0.2-0.5-0.8-1.6-0.8-2.1c0-1,1.3-1,1.9-1.2
		c0.6-0.1,1.3-0.3,1.3-1.1c0-0.8-1.1-0.8-1.8-0.8c-1.9,0-3.9,0.1-5.8,0.1c-2.2,0-4.4-0.1-6.6-0.1c-0.7,0-1.7,0-1.7,0.8
		c0,0.8,0.8,1,1.4,1.1c0.9,0.1,1.4,0.1,2,0.9c0.8,0.9,1.6,2.5,2.2,3.6l7.3,14.6c0.3,0.7,0.9,1.9,0.9,2.7c0,0.7-0.6,1.8-1,2.3
		c-1,1.2-2.2,0.9-3.7,0.9c-1,0-2.2-0.2-2.9,0.8c-0.4,0.6-0.6,1.6-0.6,2.4c0,2.6,2.2,2.7,4.3,2.7c3.3,0,3.1-0.7,4-3.6l2.7-6.3
		l7.4-15.6c0.5-1.2,1.5-3.3,2.3-4.3c0.8-1,1.2-0.9,2.5-1.1c0.7-0.1,1.4-0.3,1.4-1.1c0-0.8-0.6-0.8-1.3-0.8c-1.4,0-2.8,0.1-4.2,0.1
		c-1.4,0-2.8-0.1-4.2-0.1c-0.6,0-1.6,0-1.6,0.8c0,1,1.1,1.1,1.9,1.1c0.9,0,2.2,0.4,2.2,1.5c0,0.7-0.3,1.4-0.6,2L181.5,282z"/>
	<path class="st0" d="M211.2,265.6c0-0.5,0-1.4,0.5-1.7c0.6-0.4,2.2-0.3,2.8-0.3c1.6,0,3.4,0,4.8,0.6c1.3,0.6,1.7,1.4,2.5,2.6
		c0.4,0.7,1,1.9,1.9,1.9c0.7,0,1-0.7,1-1.3v-4.7c0-1.4-0.3-1.4-1.6-1.4c-3.2,0-6.4,0.2-9.6,0.2c-4.5,0-9.2-0.2-13.7-0.2
		c-0.7,0-1.2,0.2-1.2,1c0,0.8,0.9,0.8,1.6,0.9c3.2,0.5,3,1.8,3,4.7v17.4c0,3.2,0.1,4-3.1,4.5c-0.6,0.1-1.3,0.3-1.3,1.1
		c0,0.7,0.5,0.9,1.2,0.9c2.4,0,4.7-0.2,7.1-0.2c2.6,0,5,0.2,7.6,0.2c0.6,0,1.2-0.2,1.2-0.9c0-0.9-0.9-1-1.6-1.1
		c-3.1-0.5-2.9-1.7-2.9-4.5V279c0-1.3-0.1-2,1.5-2.1l2.1-0.1c5.2,0,3.5,4.7,5.9,4.7c0.8,0,1-0.7,1-1.4c-0.1-1.4-0.2-2.8-0.2-4.2
		c0.1-1.4,0.1-2.8,0.2-4.2c0-0.7-0.2-1.3-1-1.3c-0.9,0-1.2,1-1.4,1.6c-0.4,1.3-1,2.3-2.4,2.6c-0.9,0.2-3.1,0.2-4.1,0.2
		c-1.7,0-1.6-0.8-1.6-2.3V265.6z"/>
	<path class="st0" d="M237.2,292.1c7.2,0,14.1-4.6,14.1-12c0-3.3-1.8-6.4-4.5-8.4c-2.6-2-5.9-2.8-9.2-2.8c-6.8,0-14,4.5-14,11.7
		C223.7,287.8,230.1,292.1,237.2,292.1 M238.1,290.4c-4.9,0-6.5-7.7-6.5-11.3c0-3.3,1.3-8.7,5.5-8.7c2.2,0,3.9,1.9,4.8,3.7
		c1,2,1.5,4.9,1.5,7.1C243.4,284.5,242.5,290.4,238.1,290.4"/>
	<path class="st0" d="M277.8,271c0-0.7,0.2-1.7-0.6-1.7c-1.5,0-3.1,0.1-4.6,0.1c-1.5,0-3.1-0.1-4.6-0.1c-0.6,0-1.5,0-1.5,0.8
		c0,0.6,0.6,0.9,1.1,1c0.9,0.1,1.9,0.3,2.5,1.1c0.5,0.8,0.4,2.8,0.4,3.7v8c0,1.2,0.1,2.1-0.7,3c-0.9,0.9-2.4,1.7-3.7,1.7
		c-1.1,0-2.3-0.5-2.9-1.5c-0.6-1-0.7-2.7-0.7-3.8v-13.1c0-0.7-0.1-0.8-0.8-0.8c-1.5,0-3,0.1-4.5,0.1c-1.5,0-3-0.1-4.5-0.1
		c-0.6,0-1.5,0-1.5,0.8c0,0.7,0.6,0.9,1.1,1c0.9,0.2,1.9,0.2,2.5,1.1c0.5,0.8,0.4,2.8,0.4,3.7v7.8c0,2.1,0.2,4.3,1.6,6.1
		c1.3,1.6,3.6,2.3,5.6,2.3c2.8,0,5-1.3,7.2-2.9c0.2-0.1,0.6-0.5,0.9-0.5c0.6,0,0.4,1.5,0.4,1.8c0,0.5-0.3,1.8,0.6,1.8
		c0.5,0,1.6-0.4,2.1-0.6l5.1-1.5c0.6-0.1,2.3-0.3,2.3-1.2c0-0.6-0.4-0.7-0.9-0.8c-1.4-0.1-2.3-0.4-2.2-1.7V271z"/>
	<path class="st0" d="M293.4,270c0-0.5,0.1-1.8-0.7-1.8c-1,0-1.5,0.5-1.8,0.9c-1.5,1.6-4.2,2.8-6.4,3.3c-0.5,0.1-2.1,0.3-2.1,1.2
		c0,0.8,0.8,0.8,1.5,0.8c2.3,0.3,2.2,1.4,2.2,3.5v7.2c0,1.2,0.2,3-0.5,3.9c-0.5,0.6-1.6,0.7-2.3,0.8c-0.5,0.1-1.2,0.4-1.2,1.1
		c0,0.8,0.9,0.9,1.5,0.9c1.8,0,3.5-0.1,5.2-0.1c2.3,0,4.5,0.1,6.8,0.1c0.5,0,1.1-0.1,1.1-0.9c0-0.6-0.4-0.9-1-1.1
		c-0.7-0.2-1.6-0.3-2.1-1.1c-0.5-0.7-0.3-2.7-0.3-3.7v-8c0-1.7-0.2-2.7,1.1-3.8c1-0.8,2.4-1.4,3.7-1.4c1.3,0,2.7,0.6,3.4,1.8
		c0.7,1.1,0.8,3,0.8,4.2v7.2c0,0.9,0.1,2.9-0.3,3.7c-0.5,0.7-1.3,0.9-2.1,1.1c-0.5,0.1-1,0.4-1,1.1c0,0.7,0.6,0.9,1.1,0.9
		c2.3,0,4.5-0.1,6.8-0.1c1.8,0,3.5,0.1,5.2,0.1c0.6,0,1.5,0,1.5-0.9c0-0.7-0.6-1-1.2-1.1c-0.7-0.1-1.8-0.2-2.3-0.8
		c-0.7-0.9-0.5-2.7-0.5-3.9v-8.2c0-2.4,0-4.4-2-6.1c-1.8-1.4-4-2-6.2-2c-4.8,0-7.3,3.3-8.1,3.3V270z"/>
	<path class="st0" d="M339.5,259.2c0-0.7,0-2.1-1-2.1c-0.3,0-0.6,0.1-0.8,0.2c-2.1,1-4.3,1.8-6.7,2.2c-0.7,0.1-2.8,0.1-2.8,1.2
		c0,0.9,1.1,1,1.8,1c2.3,0,1.8,1.6,1.8,3.4v4.3c-0.5,0-1.4-0.2-1.6-0.3c-0.9-0.3-1.9-0.4-2.9-0.4c-7,0-12.9,5-12.9,12.1
		c0,6.1,4.2,11.2,10.6,11.2c4.2,0,6.6-2.8,7.1-2.8c0.2,0,0.3,0.4,0.3,0.6l0.1,1c0.1,0.6,0.2,1.2,1,1.2c0.5,0,1.5-0.4,2-0.5l6.7-2.2
		c1.4-0.5,1.2-0.4,1.3-2c0-0.5,0-1.2-0.7-1.2c-0.9,0-1.6,1.8-2.6,1.8c-0.8,0-0.6-1.5-0.6-2V259.2z M331.8,287.6
		c-0.7,0.6-2.1,0.8-2.9,0.8c-4.6,0-6.7-4.8-6.7-8.8c0-3.6,1.4-8.9,5.9-8.9c1.3,0,2.4,0.7,3.1,1.8c0.7,1.1,0.5,3.2,0.5,4.5V287.6z"/>
	<path class="st0" d="M364.8,274.3c0-1.6-0.1-3.1-1.7-4.1c-1.7-1-4.3-1.4-6.3-1.4c-3.2,0-6.6,0.7-9.2,2.6c-1.2,0.8-3.4,3-3.4,4.5
		c0,0.8,0.8,1.1,1.5,1.1c1.2,0,3-0.5,4-1.1c1.3-0.5,1.6-1.2,2.1-2.4c0.6-1.5,1.8-3.1,3.5-3.1c2.6,0,2.2,3.4,2.2,5.1v1.6
		c0,0.1-0.2,0.2-0.5,0.5c-1.2,0.9-3,1.8-4.7,2.2c-1.7,0.5-4.3,1.7-5.7,2.6c-1.7,1.2-2.7,2.6-2.7,4.7c0,2.9,2.2,4.8,5.1,4.8
		c4.9,0,7.9-3.9,8.5-3.9c0.4,0,0.7,1,0.8,1.1c0.8,1.7,1.7,2.3,3.6,2.3c2.1,0,3.9-1,5.4-2.2c0.5-0.4,1.3-1.2,1.3-1.9
		c0-0.3-0.2-0.7-0.6-0.7c-0.4,0-0.9,0.4-1.2,0.6c-0.4,0.3-0.7,0.5-1.2,0.5c-1.4,0-1.1-2.3-1.1-3V274.3z M357.7,284
		c0,0.8-0.2,1.7-0.5,2.2c-0.6,1.1-2.3,1.9-3.6,1.9c-1.7,0-2.7-1.3-2.7-2.8c0-1.8,1.2-2.8,2.6-3.7c0.5-0.3,3.1-1.9,3.5-1.9
		c0.6,0,0.5,1.9,0.5,2.1V284z"/>
	<path class="st0" d="M378.2,273.6c0-2,0-1.9,1.6-1.9h2.4c1.3,0,1.7,0,1.7-1.3c0-1.2-0.7-1-1.8-1h-2.6c-1.3,0-1.6,0-1.6-1.3v-3.4
		c0-0.7,0.2-1.8-0.8-1.8c-0.8,0-1.3,1-1.7,1.6c-1.4,2.5-3.9,4.2-6.6,5.3c-0.5,0.2-1.6,0.6-1.6,1.3c0,0.8,1.6,0.5,2.2,0.5
		c0.5,0,1.1,0.1,1.2,0.6c0.1,0.4,0.1,1.7,0.1,2.1v10.2c0,1.8,0.3,3.9,1.4,5.4c1,1.3,2.9,2,4.5,2c2.3,0,4.7-0.9,6.4-2.5
		c0.4-0.4,1.4-1.4,1.4-2c0-0.4-0.2-0.7-0.6-0.7c-0.7,0-1.8,1.4-3.5,1.4c-2.6,0-2.4-4.8-2.4-6.6V273.6z"/>
	<path class="st0" d="M395.3,270c0-0.5,0.1-1.8-0.7-1.8c-1,0-1.5,0.5-1.8,0.9c-1.5,1.6-4.2,2.8-6.4,3.3c-0.5,0.1-2.1,0.3-2.1,1.2
		c0,0.8,0.8,0.8,1.5,0.8c2.3,0.3,2.2,1.4,2.2,3.5v7.2c0,1.1,0,2.9-0.3,3.9c-0.2,0.7-1.8,0.7-2.5,0.8c-0.6,0.1-1.2,0.4-1.2,1
		c0,0.8,0.8,0.9,1.5,0.9c2.1,0,4-0.1,6.1-0.1c2.1,0,4.1,0.1,6.2,0.1c0.6,0,1.5-0.1,1.5-0.9c0-0.6-0.6-0.9-1.2-1
		c-0.9-0.1-2.4-0.1-2.7-0.8c-0.3-1-0.2-2.8-0.2-3.9V270z M391.5,266.8c2.4,0,4.4-1.5,4.4-4c0-2.4-2.1-3.7-4.3-3.7
		c-2.2,0-4.4,1.4-4.4,3.8C387.2,265.2,389.2,266.8,391.5,266.8"/>
	<path class="st0" d="M412.7,292.1c7.2,0,14.1-4.6,14.1-12c0-3.3-1.8-6.4-4.5-8.4c-2.6-2-5.9-2.8-9.2-2.8c-6.8,0-14,4.5-14,11.7
		C399.2,287.8,405.6,292.1,412.7,292.1 M413.6,290.4c-4.9,0-6.5-7.7-6.5-11.3c0-3.3,1.3-8.7,5.5-8.7c2.2,0,3.9,1.9,4.8,3.7
		c1,2,1.5,4.9,1.5,7.1C419,284.5,418,290.4,413.6,290.4"/>
	<path class="st0" d="M439.3,270c0-0.5,0.1-1.8-0.7-1.8c-1,0-1.5,0.5-1.8,0.9c-1.5,1.6-4.2,2.8-6.4,3.3c-0.5,0.1-2.1,0.3-2.1,1.2
		c0,0.8,0.8,0.8,1.5,0.8c2.3,0.3,2.2,1.4,2.2,3.5v7.2c0,1.2,0.2,3-0.5,3.9c-0.5,0.6-1.6,0.7-2.3,0.8c-0.5,0.1-1.2,0.4-1.2,1.1
		c0,0.8,0.9,0.9,1.5,0.9c1.8,0,3.4-0.1,5.2-0.1c2.3,0,4.5,0.1,6.8,0.1c0.5,0,1.1-0.1,1.1-0.9c0-0.6-0.4-0.9-1-1.1
		c-0.7-0.2-1.6-0.3-2.1-1.1c-0.5-0.7-0.3-2.7-0.3-3.7v-8c0-1.7-0.2-2.7,1.1-3.8c1-0.8,2.4-1.4,3.7-1.4c1.3,0,2.7,0.6,3.4,1.8
		c0.7,1.1,0.8,3,0.8,4.2v7.2c0,0.9,0.1,2.9-0.3,3.7c-0.5,0.7-1.3,0.9-2.1,1.1c-0.5,0.1-1,0.4-1,1.1c0,0.7,0.6,0.9,1.1,0.9
		c2.3,0,4.5-0.1,6.8-0.1c1.8,0,3.5,0.1,5.2,0.1c0.6,0,1.5,0,1.5-0.9c0-0.7-0.6-1-1.2-1.1c-0.7-0.1-1.8-0.2-2.3-0.8
		c-0.7-0.9-0.5-2.7-0.5-3.9v-8.2c0-2.4,0-4.4-2-6.1c-1.8-1.4-4-2-6.2-2c-4.8,0-7.3,3.3-8.1,3.3V270z"/>
	<path class="st0" d="M458.9,271.8c0-2.8,2.3-5,5.1-5c2.8,0,5,2.3,5,5c0,2.8-2.2,5.1-5,5.1C461.2,276.8,458.9,274.6,458.9,271.8
		 M468.4,271.8c0-2.4-2-4.4-4.4-4.4c-2.5,0-4.4,2-4.4,4.4c0,2.5,2,4.4,4.4,4.4C466.4,276.2,468.4,274.2,468.4,271.8 M466.5,274.6
		h-0.8l-1.6-2.6h-1.3v2.6h-0.7V269h2.5c0.5,0,1,0,1.4,0.3c0.4,0.2,0.6,0.7,0.6,1.2c0,1.1-0.8,1.5-1.8,1.5L466.5,274.6z M463.8,271.5
		c0.8,0,2,0.1,2-1c0-0.9-0.8-1-1.5-1h-1.6v2H463.8z"/>
	<path class="st0" d="M-90.3,239.9c-21.3,0-40.7,15.9-40.7,35.4c0,19.6,19.3,35.5,40.7,35.4c21.6,0,40.5-16.9,40.7-35.4
		C-49.5,255.7-69.6,239.9-90.3,239.9 M-92,304.8c-0.2,0-0.5,0-0.7-0.1c0.3-0.5,0.5-1.2,0.7-1.5C-91.8,303-91.9,304.1-92,304.8
		 M-91.3,299.3c-0.4-0.3-0.1-1.8-0.1-2.2c0-0.5,0.2-1.7,0.5-1.4v2.1C-91,297.8-90.9,299.7-91.3,299.3 M-90.6,292
		c0,0.8-0.1,1.3-0.1,1.3c-0.4-0.2-0.1-3.3,0-2.6C-90.6,291.5-90.6,291.5-90.6,292 M-91,288.8c-0.1-0.2,0.4-2.3-0.1-2.2
		c-0.3,0.1-0.4-1.1-0.1-0.9C-90.2,286.3-90.4,289.6-91,288.8 M-89.3,304.9c-0.2-1.5-0.1-2-0.1-3.7c0.3-0.1,0.1,2.5,0.6,3.7
		C-88.9,304.9-89.1,304.9-89.3,304.9 M-88.2,299.8c-0.6,0.5-0.4-1.8-0.2-1.8C-87.8,298-88.1,299.7-88.2,299.8 M-87.3,288.9
		c0-0.3-0.3-0.5-0.4-0.1c0,0.2-0.2,1.7-0.4,1.8c-0.4,0.7-0.5-1-0.6-1.2c-0.1-0.4-0.3-0.3-0.4,0.1c-0.1,0.3,0,2,0,2.5
		c0.1,1.4,0.1,3,0,4.4c0,0.4-0.4,3.4-0.9,3.2c-0.2-0.1-0.2-7.3-0.2-8.6c0-1.3,0.4,0,0.5-0.3c0.1-0.2,0.1-3,0-3.8
		c-0.1-0.8-1-2.1-2-2.2v-1.8c0-0.4-1.2-0.4-1.3-0.3c0,0-2.4-1.4-2.7-1.9c-0.9-1.2-1.5-2.3-2.9-3.1c-0.7-0.4-2.3-1.5-0.9-1.5
		c1.4-0.1,3,1.2,3.2,1.2c0.2,0,2.2-2.9,2-3c-0.2,0-0.6,0-1,0c-0.7,0-1.1,0-1.3-0.8c0-0.4-1,0.6-1.1,1c-0.1,0.4,0.1,0.5,0,0.8
		c-0.1,0.3-0.6,0.4-0.9,0.2c-0.3-0.1-0.7-1.4-1-1.5c-0.3-0.1-0.2,0.8-0.4,1.2c-0.2,0.5-0.6,0-1.1-0.2c-0.5-0.3,0.8,2.2-0.1,2.5
		c-0.6,0.2-0.5-0.6-1,0.1c-0.5,0.7-0.7,1-0.3,1.1c0.4,0.1,3.1-2,4.8,0.2c0.7,0.9-1.5,0.8-2.1,0.9c-0.4,0,0.7,1.4,0,1.6
		c-0.4,0.1-0.9-0.5-1.2-0.7c-0.3-0.2-0.2,0.5-0.3,0.8c-0.1,0.4-0.7,0.7-0.9,0.5c-0.2-0.2-0.1-0.6-0.1-0.8c0-0.2-0.5-0.3-0.5,0
		c-0.2,1.4-1.9,3.1-1.8,1.7c0.1-1.5-1.1,0.7-1.5,1c-0.4,0.3-1,0.4-1.2,0.1c-0.2-0.4,0.9-0.5,0.4-0.8c-1.2-0.8,1.1-2.4,0.8-3.3
		c-0.1-0.3-0.6-0.6-1.6-0.1c-1,0.5-3.4-1.4-2.7-1.6c0.8-0.2,0.6-0.7,0.3-0.9c-1.2-0.8,2.6-2.5,2.9-2.6c0.6-0.3,0.4-1,0-0.8
		c-0.1-0.5,0.5-1.2,0.9-1.2c0.4,0,0.5,0.5,0.9,0.1c0.1-0.1,0.2-0.9,0-1.1c-0.2-0.2-0.7,0.3-1.6,0.1c-0.3-0.1-0.3,0.4-0.4,0.6
		c-0.2,0.4-0.7,0.4-0.8-0.2c-0.2-1-1.2,1.4-2,1.6c-0.4,0.1-0.4-0.9-0.8-0.7c-0.3,0.3-1.5,0.1-1.4-0.5c0.2-0.6,1.2-0.7,0.7-1
		c-0.5-0.2-1.3,0.6-1.9,0.4c-0.7-0.2,0.7-0.5,0.1-1.1c-0.6-0.7,0.3-1,0.9-1c1.4,0,0-1,0.1-1.7c0.6,0.2,0.5-0.7,0.5-1.1
		c0-0.6,3.3,1,3.2-0.2c0-0.1-0.4-0.3-0.4-0.4c-0.2-0.3,1.4-0.5,1.5-0.7c0.1-0.2-0.7-0.7-0.8-1c-0.1-0.3,1.1-0.2,0.7-0.7
		c-0.3-0.3-1.6-1.3-0.4-1.3c0.4,0,1.3-0.2,1.4-0.6c0-0.9,1.3,0.1,1.3-0.2c0-0.4-0.1-0.6-0.1-1c0-0.4,0.2-0.4,0.5-0.4
		c0.1,0,1.4,0.5,0.7,1c-0.4,0.3-0.4,0.3-0.4,0.8c0,0.4,0.1,0.7-0.4,0.6c-0.3,0-0.6,0.1-0.8,0.3c-0.2,0.2-0.3,0.6-0.3,0.8
		c0,0.4,0.3,0.8,0.5,0.9c0.2,0.1,0.7,0,0.7-0.1c-0.1-0.2-0.5-0.3-0.3-0.6c0.4-1.2,0.7-0.5,1-0.6c0.3-0.1,0.1-1,0.6-1.2
		c0.5-0.2,1-0.5,1.9-0.4c0.3,0,1,0.2,0.6,0.7c-0.3,0.4-0.8,0.3-1.1,0.2c-0.3,0-0.2,0.6-0.1,0.9c0.2,0.6-1.3-0.2-1.4,0.8
		c-0.1,0.9-2,1.5-1.5,1.8c0.7,0.4,0,1.2,0.2,1.4c0.2,0.3,1.1,0.1,1.1-0.3c0.1-0.4,1.1-0.5,0.6-0.7c-0.4-0.2-1.4-0.6-0.5-0.8
		c0.2-0.1,1.5,0.1,1.6-0.4c0-0.1-0.7-1,0-1c0.4,0,0.8,0.3,1,0.2c0.3-0.1-1-1.5,0.1-1.5c0.7,0,2,0.6,2,0.3c0-0.3-1.8-1.9-1.3-2.1
		c0.5-0.2,1,0.3,1.5,0.7c0.5,0.4,1,0.2,1.1,0.1c0.4-0.3-0.9-1,0-1.4c0.1-0.1,0.5,0,0.6,0.1c0.2,0.3,0.8,0.2,0.6-0.1
		c-0.1-0.3-0.3-1.2,0.4-0.9c0.8,0.3,0.7-2.2,1.1-1.3c0.3,0.8,1.6,1.5,2,1.5c0.4,0,0.5-0.3,0.9-0.6c0.3-0.3,0.5-0.3,0.7-0.1
		c0.3,0.2,0,0.5,0.5,0.4c0.4,0,0.8-0.4,1-0.7c0.3-0.4,0.5-0.5,1.1-0.2c0.4,0.2,0.9,0.4,0.7-0.2c-0.1-0.5-1.4-0.7-1.3-1.3
		c0.1-0.6,0.3-0.7,1.1-0.4c0.8,0.3-0.3-0.8,0.4-1.3c0.7-0.4,1.1,1.4,2.1,0.5c0.9-0.9-0.2-0.3-0.7-0.5c-0.5-0.2-0.4-1.3,0.6-1.3
		c0.2,0,0.5,0.4,0.8,0.3c0.3-0.1,0.9-0.3,0.8-0.7c-0.1-0.4,0.5-0.2,0.6,0.1c0.2,0.5,0.2,0.6,0.7,0.5c0.3-0.1,0.6-0.4,0.6,0.1
		c0,0.5,0.1,1.1,0.5,0.7c0.4-0.4,0.7-0.3,1.4,0.2c0.6,0.4,0.5,0.7,0.5,1c0,0.1-0.4,0.2-0.8,0.1c-0.1,0-0.7-0.4-0.9,0
		c-0.2,0.4,0,1.3,0.4,0.5c0.3-0.5,0.3,0.2,0.8,0.4c0.9,0.4,1-1.1,1.6-1.1c0.5,0,0.3,1.4,0.8,1c0.5-0.5,1-0.4,1,0.3
		c0,0.9,0.6,1,1.1,0.3c0.5-0.8,0.3,0.9,0.6,1.2c0.3,0.3,0.4,0.7-0.3,0.6c-0.6-0.1-0.9,0.4,0,0.6c0.9,0.3-0.2,1.2-0.7,0.8
		c-0.5-0.4-0.6-0.3-0.7-0.3c-0.3,0-0.3,0.6-0.5,0.3c-0.3-0.3-0.5-0.1-0.9,0c-0.4,0.1-0.4,0.9,0,0.8c0.4-0.1,0.3,0.4,0.6,0.2
		c0.2-0.1,0.4-0.4,0.7-0.4c0.6,0-0.1,1,0.2,1.2c0.3,0.2,1.6,0.2,0.7,0.7c-0.4,0.2-1.8,0-1.9,0.4c-0.2,0.5,0.3,0.8,0.1,1.3
		c-0.2,0.5-1.5-0.5-1.8-0.5c-0.3,0-0.4,0.9-0.8,1c-0.4,0.1-0.7-0.7-1.1-0.6c-0.3,0-0.5,0.5-0.6,0.6c-0.3,0.1-0.5,0-0.7-0.3
		c-0.5-0.6-0.4,0-0.8,0c-0.3,0-0.7,0-0.7-0.3c0-0.8-1-0.3-1.3-0.4c-0.3,0-0.5-1.1,0.3-1.2c0.9-0.1-0.4-2.2-1-1.8
		c-0.6,0.5-0.8,0.6-1,0.5c-0.1-0.2-0.4-1.1-0.8-0.8c-0.4,0.2,0.2,1.3-0.5,1.4c-0.6,0.1-0.4-0.6-0.9-0.9c-0.3-0.1-0.3,1.3-0.4,1.7
		c-0.1,0.4-1.4,1-1.5,1.6c-0.1,0.6,0.1,0.4,0,0.8c-0.1,0.4-0.5,0.7-0.7,0.5c-0.2-0.3-0.4-0.5-0.5-0.8c-0.2-0.2-0.3-0.6-0.6-0.6
		c-0.2,0-0.2,0.4-0.3,0.7c-0.2,0.5-1.1-0.3-1.3,0.1c-0.3,0.5,0,3.2-1,2.4c-1-0.8-0.6,1.6-1.5,2.2c-0.9,0.6,0.6,0.7,1.1-0.3
		c0.9-1.5,1.6,0.7,1.7-0.2c0-0.9,0.2-0.8,0.8-0.5c0.6,0.3,2.1,2.1,2.4,2.8c0.2,0.5,0.3,2.1,0.2,3.2c0,0.5,0,1.3-0.5,1.1
		c-1-0.5-0.4-0.8-0.2-1.7c0.2-0.9-0.2-1-0.9-1c-0.6,0-2.3,3.2-2.1,3.9c0.1,0.1,0.4,0.6,0.8,1c0.3,0.2,2.4,1.1,2.5,1.1
		c1.1-0.2,1.1-2.8,1.1-3.7c0.1-1.6,0.1-3.5-0.6-4.6c-0.5-0.8-2.1-2.5-2.6-2.8c-0.3-0.3,0.2-1.6,0.8-0.5c0.7,1.3,2.1,2.5,2.9,2.7
		c0.3,0.1,0.8-0.6,1-1.1c0.1-0.3,0.5-2,0.2-3c-0.1-0.5-0.3-2,0-1.9c1.2,0.5,1-1.6,1.4-1.6c0.2,0,0.3,0,0.3,0.2c0,0.9-0.7,3-0.7,3.6
		c0,0.8,0.7,1.2,1.4,0.2c0.2-0.2,0.7-0.9,0.9-1.1c0.2-0.1,0.4,0.1,0.7,0.1c-0.3,0.3-3.2,3.7-3.5,4.2c-0.3,0.6-0.4,1.4-0.4,1.7
		c0,1.4-0.1,2.7-0.1,4.1c0,0.9-0.1,1.5,0.1,2.5c0.1,1.2-0.2,1.6-0.4,2.7c-0.1,0.9,0.8,1.4,0.8,1.8c0,1.1,0,2.9,1.2,2.8
		c0.4,0,1.9-2,2.4-3c0.2-0.4,1.1-2.2,1.3-2.9c0.2-0.6,0.2-1.9,0.1-2.4c0-0.1,0.1-0.1,0.2,0c0.7,0.6,0.7,2.3,1.4,1.7
		c0,0,0.9-0.7,1.1-0.8c0.5-0.3,0.5-0.2,0.7,0.4c0.1,0.2-0.7,0.9-1.1,1.2c-0.5,0.3-1.3,0.8-1.7,1.2c-0.2,0.3-0.8,1.3-0.9,1.5
		c-0.5,1.1-1.5,2.7-1.9,3.3c-0.5,0.8-0.6,0.8-1.1,1.6C-87,289.3-87.3,289.3-87.3,288.9 M-100.4,286.2c-0.5,0.1-0.6-0.6-0.9-1.1
		c-0.3-0.6-0.6,1.6-1.3,1.1c-0.2-0.1,0.3-1.1-0.1-1.1c-0.3,0-0.7,0.1-1,0.8c-0.2,0.6-1.2-0.9,0.3-1.7c0.4-0.2,1.4-0.3,1.7-0.5
		c0.5-0.3,0.8-0.9,1.3-1.1c0.5-0.1,0.9,0.3,1.3,0.2c0.2-0.1,0.2-0.8,0.3-1.1c0.2-0.5,0.6-0.4,1.1-0.4c0.3,0,0.3,0,0.3-0.4
		c0-0.2,0.1-0.4,0.3-0.5c0.2-0.1,0.9,0.8,1.4,1.2c0.6,0.5,0.9,0.6,1.3,1.2c0.3,0.5-0.6,0.5-0.6,1c0,1.4-1.2-0.4-1.6-0.4
		c-0.4,0.1-0.3,2.2-1.7,2c0.1-0.6-0.6-0.7-0.6-0.1c-0.2,0-0.3,0.1-0.7,0.1C-99.4,284.8-101,285.3-100.4,286.2 M-110.9,265.5
		c0.4-0.3,1.3-0.2,1.2,0.1c-0.1,0.3-1,1.4-1.2,1C-111.1,266.3-111.2,265.8-110.9,265.5 M-108.9,261.2c-0.5-0.1,0-1,0.1-1.1
		c0.5-0.3,0.9,0.4,1.1,0.8c0.2,0.4,0.3,1,0.2,1.2c-0.1,0.2-0.8,0.7-1.8,0.4c-0.3-0.1-0.4-0.6-0.1-0.6c0.2,0,0.4,0.2,0.6,0
		C-108.7,261.7-108.5,261.3-108.9,261.2 M-100,257c0.3-0.2,1.6,0.6,1.7,0c0-0.6,2.2,0,1.7,0.9c-0.3,0.5,0,0.8-0.3,1.3
		c-0.2,0.3-1.3-0.3-1.3,0c0.1,1.8-1.4,0.8-1,1.5c0.4,0.7-0.8,0.5-1.2,0.3c-0.5-0.4-0.7,0.4-1.3,0.7c-0.3,0.2-1.1,0.5-1.5-0.1
		c-0.5-0.9,0.8-0.3,1.1-0.5c0.3-0.2-0.6-0.7-0.3-1.1c0.3-0.4,1.2,0.1,1.1-0.3c-0.1-0.8,0.6-0.9,1.3-0.9
		C-99.7,258.6-100.3,257.2-100,257 M-97.4,254.3c0.7-0.3,1,1.2,0.4,1.5c-0.6,0.3-1.9,0.7-2.1,0c-0.6-1.1,1.2-0.2,1.5-0.3
		C-97.4,255.3-98.1,254.7-97.4,254.3 M-102.9,256.8c-0.4,0.1-0.7,0.5-0.9,0.8c-0.4,0.7-1.5,0.1-1.1-0.6c0.1-0.2,1.5-0.1,1.3-0.7
		c-0.1-0.5,0.7-0.3,1,0.1C-102.1,256.6-102.3,256.7-102.9,256.8 M-94.7,252.3c0.4-0.2,0.9,0.3,1,0.3c0.8,0.2,1.7-1.1,1.9,0.4
		c0.2,1.6-2-0.3-1.8,1c0.2,1.3-1.6,0.6-1.3,0c0.3-0.6-0.8,0-1-0.3c-0.2-0.3-0.3-1,0.5-0.7C-94.5,253.4-95.2,252.5-94.7,252.3
		 M-90.8,255.6c0.3,0,0.9,0.2,0.8-0.3c0-0.5,0.4-0.2,0.5,0.3c0.1,0.4-1.3,1.4-1.1,2.1c0.3,1-0.6,1.8-0.8,1.1c-0.2-0.7-1.7-1.3-3-0.9
		c-0.5,0.2-1.9-0.8-1.4-1.3c0.2-0.2,0.3,0.2,0.6,0c0.3-0.2-0.5-0.9-0.3-1.2c0.2-0.2,0.6-0.3,1.2,0.4c0.6,0.8,1.1-0.6,1.1-1.1
		c0-0.3,1.1,0.1,1.4,0c0.3-0.1,0.6-0.3,0.8-0.4c0.2-0.1,0.8,0,0.3,0.4C-91.2,255.2-91,255.6-90.8,255.6 M-93,259.6
		c-0.2,0.2-1,0.2-1-0.4c-0.2-1,1.1-1,1.3-0.6C-92.7,258.8-92.8,259.4-93,259.6 M-73.9,268.3c-0.4,0.4,0.8,0.7,0.8,1.2
		c0,0.3-0.1,0.6-0.6,0.9c-0.4,0.2,0.8,0.6,1.1,0.5c0.3,0-0.3-0.5,0-0.9c0.5-0.5,0.2-0.5,0-1c-0.2-0.5,0.1-1,0.1-1.5
		c0-0.3,0.5-1.8,0.8-0.7c0.3,1.1,1.6-0.3,1.7,0.3c0.1,0.6-0.9,1.5-0.6,1.5c0.3,0,1.2,0.6,0.8,1.1c-0.4,0.5,1.7-0.2,2,1
		c0.2,1.1-0.5,0.1-0.8,0.2c-0.7,0.2,1.6,1.7,0.3,2.2c-0.5,0.2-0.6,0.2-0.8,0.1c-0.2-0.1,0-0.5-0.1-0.7c-0.2-0.3-1,0.1-1.1,0.2
		c-0.1,0.3,0.6,0.1,0.4,0.8c-0.2,0.7,0.8,0.3,1.6,0.5c0.5,0.1,0.9,0.3,0.8,0.9c0,0.7-1.2,0.3-1.5,0.5c-0.3,0.2,0.7,1.4,0.1,1.5
		c-0.1,0-1.7,0.3-1,0.6c0.4,0.1,1.8,0.8,0.9,1.3c-0.6,0.4-1.2-0.5-0.9,1c0.1,0.5-1.1-0.1-1.8-1c-0.5-0.6-0.3,0.3-0.7,0.5
		c-0.2,0.1-1.3-0.4-0.9,0.1c0.2,0.3,0.5,0.6,1.3,0.4c0.8-0.2,0.7,2.7-0.3,1.3c-0.1-0.1-0.4,0-0.3,0.5c0.2,1.1-1.3-0.7-1.3,0.5
		c0,0.3,0,0.5-0.2,0.8c0.4,0.1,0.6-0.3,0.7-0.3c0.3,0,1,0.4,0.9,0c-0.1-0.4,1.4-0.9,1.4,0.4c0,0.4-1,0.3-1.4,0.3
		c-0.1,0.2,0.2,0.4,0,0.7c-0.2,0.2-0.5,0.2-0.7,0.2c-0.3,0-0.6,0.2-0.4,0.5c0.3,0.4,0.5,0.6,0.5,1c0,0.3-0.6,0.3-1,0.3
		c-0.4,0-0.7-1-1-1c-0.3-0.1-0.4,1.2,0,1.5c0.4,0.3,0.3,0.5-0.1,0.5c-0.5,0-0.7-0.3-1-0.8c-0.5-0.9-0.6-0.1-0.6,0.3
		c0,0.3-1.1,0.6-1.4,0.3c-0.3-0.3-0.7-0.6-0.9-0.6c-0.2,0-0.5,0.2-0.4,0.5c0.1,0.2,0.1,0.4-0.8,0.3c-0.9-0.1-1.1,0.6-1.3-0.1
		c-0.1-0.3,0.6-0.5,0.3-0.8c-0.2-0.3,0.1-1.3,0.4-1.3c0.3,0,0.9,0.1,0.7-0.2c-0.1-0.3-0.3-1.6,0.3-1.4c0.9,0.2,0.1-1.4,0.5-1.6
		c0.1-0.1,0.4-0.5,0.1-0.5c-0.4,0-0.8,0.5-1,0.2c-0.3-0.4,1.6-1.1,1.3-1.3c-0.3-0.3-2.3,0.3-1.4-0.5c0.7-0.7,1-1.6,0.8-1.8
		c-0.2-0.3-0.7,0.6-0.9,0.8c-0.2,0.2-0.4,0.2-0.8-0.1c-0.3-0.2-0.3,0.7-0.6,0.9c-0.6,0.2-0.6-0.3-0.8-0.8c-0.1-0.3-0.4,0.1-0.7-0.5
		c-0.3-0.9-0.4,0.2-0.7,0.3c-0.6,0.4-1.7-1.4-0.8-2.5c0.5-0.6,1.2,0.4,1.5-0.6c0.2-0.5,0.7-0.4,0.4-1c-0.3-0.6-0.9,1.4-1.3,0.8
		c-0.4-0.6-0.6-1.4-0.8-1c-0.2,0.4,0,0.8-0.2,1.2c-0.1,0.3-0.6,0.2-0.7,0.4c-0.1,0.2,0.2,0.9-0.3,0.9c-0.4,0-1.2-0.5-1-0.2
		c0.2,0.4,0.3,0.9,0,1.4c-0.3,0.5-0.6-0.4-1-0.4c-0.5-0.1-0.1,0.7-0.9,0.4c-0.1-0.5-0.1-2.9,0-3.9c0.1-0.9,0.4-1.5,1-2.2
		c0.7-1,1.3-1.7,2.2-2.5c0.6-0.6,1.6-2.1,2.5-0.6c0.2,0.3,0,0.6-0.3,0.6c-0.7,0-0.9,0.4-0.8,0.5c0.4,0.3,1.5,0.1,1.8,0
		c0.3-0.1,0.2-0.8,0.3-1c0.1-0.3,0-0.5,0.4-0.5c1,0,1.7,1.1,2,1.3c0.3,0.2,0.4-1,0.8-1.1c0.3-0.1,0.9,0.7,1,0.2
		c0.2-0.6,0.5-1.3,0.9-0.8c0.2,0.3,0.1,0.6,0.6,0.6c0.6,0,1.7-0.4,2-0.3C-73.6,267.5-73.7,268.1-73.9,268.3 M-73.4,264.9
		c0.2-0.1,0.9-0.2,1,0.1c0,0.3-1.1,1-1.3,0.9C-74.2,265.8-73.7,265-73.4,264.9 M-69.8,281.6c-0.3,0.4-0.9-0.1-1-0.3
		c0-0.2-0.1-0.6,0.2-0.5C-70.4,280.8-69.5,281.2-69.8,281.6 M-81.5,284.3c-0.1,0.3-0.2,1.1-0.4,0.9c-0.9-0.6-1.2,0.2-1.4,0.1
		c-0.3-0.2,0.3-0.4,0.3-0.9c-0.1-0.9,2.2-3,2.5-2.1C-80.2,284.2-81.1,283.4-81.5,284.3 M-86.3,282c-0.2-0.4,0.7-0.4,0.6-0.9
		c-0.1-0.7-0.7-0.2-0.6-0.6c0.3-0.8-1,0.1-1-0.4c0-0.6-1-0.1-1-0.1c0,0-0.2-1.5-0.1-1.9c0.5,0.3,0.7-0.5,0.9-0.1
		c0,0.2-0.1,1.1,0.4,1.1c0.5,0,0.5-0.8,0.9-0.8c0.4,0,0.9,0.2,1.3,0.1c0.8-0.2,0.9,0.8,0.9,1.5c-0.1,1.2-0.3,1.6-0.7,2.4
		C-85.3,281.5-86.2,282.4-86.3,282 M-85.5,283.4c-0.2,0.5-0.8,1.5-1.2,2c-0.4,0.4-1.2,0.1-1.2-0.5c0-0.7-0.2-1.5-0.6-1.8
		c-0.4-0.4-0.1-1,0-1.3c0.5,0.9,1.1-0.1,1.4,0.4c0.1,0.2-0.1,1,0.7,1C-85.9,283.1-85.6,283.1-85.5,283.4 M-75.1,259.9
		c-0.1-0.2-0.1-0.8,0.2-0.8c0.6-0.1,1,0.9,0.8,1.1C-74.6,260.7-74.9,260.3-75.1,259.9 M-75.1,266.8c-0.8,0.1-0.8-0.8-0.2-0.9
		C-74.7,265.7-74.3,266.7-75.1,266.8 M-86.2,266.5c0.1,0.3-0.7,1.4-1.1,1.6c-0.4,0.3,0.1-1.9,0.3-2.3c0.2-0.4,0.2-0.1,0.4,0.5
		C-86.4,266.9-86.3,266.2-86.2,266.5 M-91.5,268c0.7,0.2,1-0.2,1.3-0.7c0.3-0.4,0.4,1,0.4,1.9c0,0.4,0,1.6-0.9,1.6
		c-0.6,0-2.4-1.5-1.5-1.7C-91.3,268.9-92.2,267.8-91.5,268 M-90.8,265.8c0.4-0.6,0.8,0.6,0.5,1c-0.2,0.2-0.7,0.2-0.8-0.1
		C-91.2,266.5-90.8,265.8-90.8,265.8 M-93.9,276.9c-0.1-0.4,0.4-1.3,0.9-1.1C-92.8,275.9-93.2,277.4-93.9,276.9 M-87.1,304.7
		c0-0.3,0-0.5,0.4-0.1c0,0,0.1,0.1,0.1,0.1C-86.7,304.7-86.9,304.7-87.1,304.7 M-85,304.4c-0.2-0.3-0.6-0.5-0.7-0.9
		c-1.3-2.9-1-9.4-0.9-9.8c0.1-1,0.2-2,0.3-2.9c0.1-0.6,0.1-1,0.5-1.6c0.4-0.6,3.1-4.5,3-3.3c0,0.6,0.2,1.1,0.5,1.1
		c0.7,0,0.5,0.4,0.8,0.7c0.2,0.4,0.8,0.4,1.1,0.1c0.4-0.3,1.3-0.7,1.9-0.7c0.6,0,2.4,0.2,2.5,1.1c0.1,0.9,2.6-0.2,2.3-0.8
		c-0.3-0.6,0-0.6,0.6-0.9c0.5-0.2,1.5-0.4,1.6-0.8c0.1-0.4-0.5-0.4-0.5-0.8c0.1-0.4,1.1-1.3,1.9-1.4c0.8-0.1-0.2-0.9,0.2-0.9
		c1.9-0.1,0.1-2.1,0.9-2.2c1.9-0.2,2.4-3.2,1.9-3.7c-0.9-0.8,0.8-1.4,0.5-2.2c-0.2-0.4-0.7-0.9-0.3-1.1c0.4-0.3,0.7-0.7,0.6-1.1
		c-0.1-0.2-0.5,0-0.6-0.4c-0.1-0.3,0.7-1.8,0.2-2c-0.3-0.1-1.3,0.1-2.5-1.3c-0.1-0.1-0.2-0.8,0.4-1c0.6-0.1,0.1-1.1-0.5-1.2
		c-0.2,0,0-0.7-0.3-0.7c-0.3,0-0.7,0-0.9,0c-0.2,0-0.3-0.7-0.7-0.5c-0.4,0.2,0.4-1.6,0-1.7c-0.1-0.1-0.5-0.2-0.5-0.4
		c0-0.2,0.1-0.8,0-0.9c-0.1-0.5-1.6,0.5-2.1,0.4c-0.6-0.1-0.5-1.1,0.3-1.2c0.8-0.1,0.9-2.8-1-2.8c-1,0,0.8-2.8-0.7-2.7
		c-0.6,0-0.9-0.1-1-0.9c-0.1-1-2.2,0.7-2.2-0.7c0-0.5-0.5-0.9-0.8-0.6c-0.3,0.3-1.3,0.2-1.8-0.4c-0.7-0.8-1,1.1-2.9,0.4
		c-0.3-0.1-1-1.4-1.4-0.7c-0.1,0.1-0.3,1.4-0.8,1c-0.1-0.1-0.4-0.3-0.6-0.3c-0.4,0-0.3-0.4-0.6-0.7c-0.4-0.3-0.7,0-0.9,0.2
		c-0.2,0.2-1.1-0.1-0.7-0.6c0.2-0.2,0.8-1.5-0.1-1.2c-0.9,0.3-0.7-0.9-0.9-1.1c-0.2-0.2-0.8,0.1-0.8,0.5c0,0.4-0.6,0.2-1.2,0
		c-0.6-0.1-0.9-0.2-1.1,0.5c-0.2,0.7-0.8,0.4-1.2,0.3c-0.4-0.2-0.7-0.7-0.8-0.2c-0.1,0.5-0.3,0.5-0.5,0.5c-0.5,0-0.6-0.5-1-0.5
		c-1.1,0,0.1,2-0.8,2c-0.5,0-0.9-0.2-0.9,0.4c0,0.9-0.3,0.6-0.9,0.4c-0.3-0.1-0.5,0.3-0.7,0.4c-0.6,0.2-1.3-0.6-1.7-0.6
		c-0.8-0.1-1.4,1.2-1.8,1.3c-0.4,0.1-1.3-0.7-1.3,0c-0.1,0.7-0.6,0.6-1,0.8c-0.3,0.1,0.1,0.9-0.3,1.1c-0.3,0.2-0.8-0.4-1.1,0.3
		c-0.1,0.3,0.6,0.9,0.4,1.3c-0.2,0.4-0.8-0.3-1.3,0.6c-0.2,0.4-0.9-0.5-1.5-0.4c-0.4,0.1-0.5,0-0.4,0.4c0.1,0.3-0.2,0.4-0.3,0.7
		c-0.3,0.5,0.4,1.4,0,1.4c-0.4,0-1.3,0.8-0.6,1.3c0.7,0.5,1.4,2.6,0.4,2c-0.8-0.4-1.6,0.5-1.6,0.8c0,0.6-0.4,1-0.9,1.1
		c-0.8,0.1,0.4,1.1-0.9,1.2c-0.3,0-0.3,0.4-0.3,0.5c0,0.2,0.1,0.6,0.3,0.6c0.5,0.2,0.2,1-0.2,0.7c-0.2-0.2-0.8,0-0.8,0.4
		c0,0.3,0.1,0.6,0,0.9c-0.2,1-0.4,1.4,0.3,1.8c0.7,0.4,1,0.5,1.1,0.5c0.5,0.1,0.8,0.9,1.1,1.3c0.6,0.7,1.4,0.4,2.3,0.6
		c-0.4,0.4-2.2,1.2-1.4,2.2c0.3,0.4-1,1,0,2.2c0.6,0.7,1.3,1.4,1.8,1.5c0.5,0,1.8-0.2,2,0c0,0-1.4,1.5-0.9,1.9
		c0.8,0.7-0.5,1.2,0.2,1.9c0.3,0.3,1,0.4,1.3,0.4c0.7,0,1.2-0.2,1.7-0.2c0.3,0,0.1,0.4,0.1,0.6c0,0.3,0.2,1.3,0.8,1.4
		c0.6,0.1,0.6-0.3,0.8-0.3c0.3,0,0.3,0.6,0.7,0.5c0.3-0.1,1-0.5,1.2-0.3c0.2,0.2,0.2,0.5,0.4,0.6c0.8,0.4,1.2-0.7,1.9-1.2
		c0.6-0.4,1,0.2,1.6-0.1c0.8-0.3,1.5-1.2,1.7-1.3c0.2-0.1,0.4,0,0.8,0.1c1.2,0.3,1.4-0.6,1.5-1c0.6,0.1,1.2,0.1,1.5,0.7
		c0.3,0.6,0.5,1.2,0.6,1.9c0.2,1.2,0.2,2.3,0.1,3.5c-0.2,2.4-0.2,4.8-0.4,7.2c-0.1,1.2-0.4,2.4-0.7,3.6c-0.3,1-0.4,2.5-0.9,3.4
		c-0.1,0.1-0.1,0.2-0.2,0.3c-14.6-1.8-26-14.2-26-29.3c0-16.3,13.2-29.6,29.6-29.6s29.6,13.2,29.6,29.6
		C-60.7,289.9-71.2,302-85,304.4"/>
	<path class="st0" d="M-99,269.9c-0.2-0.1,0.6-0.8,0.3-1.1c-0.2-0.3-2.7,0.2-2,0.5c0.8,0.3,0.5,1.1,0.8,1.2c0.3,0.1,0.5-0.1,0.8,0.3
		c0.3,0.4,0.5,0.5,0.7,0C-98.1,270.4-98.9,270-99,269.9"/>
</g>
</svg>
