<?xml version="1.0" encoding="UTF-8"?>
<svg width="176px" height="59px" viewBox="0 0 176 59" version="1.1" xmlns="http://www.w3.org/2000/svg" xmlns:xlink="http://www.w3.org/1999/xlink">
    <!-- Generator: Sketch 63.1 (92452) - https://sketch.com -->
    <title>NFF_logo_color</title>
    <desc>Created with Sketch.</desc>
    <defs>
        <polygon id="path-1" points="0.0184059314 0.0196329935 43.8622549 0.0196329935 43.8622549 57.978684 0.0184059314 57.978684"></polygon>
    </defs>
    <g id="Symbols" stroke="none" stroke-width="1" fill="none" fill-rule="evenodd">
        <g id="Navbar-1" transform="translate(-91.000000, -10.000000)">
            <g id="Navbar" transform="translate(0.000000, 10.000000)">
                <g id="NFF_logo_color" transform="translate(91.048561, 0.343373)">
                    <g id="Group-5">
                        <mask id="mask-2" fill="white">
                            <use xlink:href="#path-1"></use>
                        </mask>
                        <g id="Clip-2"></g>
                        <path d="M19.9609259,1.9691279 L19.9609259,56.0862475 C19.9609259,57.1317044 20.8079055,57.978684 21.8527488,57.978684 C22.8982057,57.978684 23.7454921,57.1317044 23.7454921,56.0862475 L23.7454921,18.7176052 C23.7454921,18.0006942 24.4163883,17.4810334 25.1121325,17.6549694 C26.5119036,18.0062159 28.4880871,18.126468 30.3820575,18.1654272 C31.4262873,18.1862873 32.2803225,17.3531121 32.2803225,16.3088823 L32.2803225,16.3064282 C32.2803225,15.2965561 31.4719954,14.4735042 30.4621233,14.4504968 C27.6690232,14.3879166 25.6373151,14.1431177 24.3850982,13.4255931 C23.9832354,13.1952122 23.7454921,12.7568443 23.7454921,12.2930148 L23.7454921,11.0361965 C23.7454921,10.0235635 24.8338962,9.39408063 25.718608,9.88705283 C26.3618953,10.2468888 27.0573327,10.5334078 27.8030797,10.7282039 C28.9736969,11.0340491 30.115785,10.1376803 30.115785,8.9281038 L30.115785,8.92534291 C30.115785,8.13940964 29.4939713,7.33169601 28.7344198,7.13199166 C26.069241,6.43164597 24.4694588,3.76708063 23.9409018,1.54548471 C23.7292335,0.656784986 22.9509694,0.0196329935 22.0377285,0.0196329935 L21.9104208,0.0196329935 C20.8336738,0.0196329935 19.9609259,0.892687674 19.9609259,1.9691279" id="Fill-1" fill="#376031" mask="url(#mask-2)"></path>
                        <path d="M30.8974235,50.0822326 L30.8974235,40.9860213 C30.8974235,40.2556126 31.489481,39.6638619 32.2195829,39.6638619 L42.0057099,39.6638619 C43.0312271,39.6638619 43.8622549,38.8328341 43.8622549,37.8076237 C43.8622549,36.7824133 43.0312271,35.9510788 42.0057099,35.9510788 L32.2195829,35.9510788 C31.489481,35.9510788 30.8974235,35.3593281 30.8974235,34.6289194 L30.8974235,33.8193652 C30.8974235,33.0911038 31.4864133,32.4999666 32.2146747,32.4972057 C32.8999889,32.4950584 33.5635227,32.4913772 33.988393,32.4880028 C34.4319759,32.4852419 35.9575209,32.4812539 37.2548323,32.4781863 C38.2806562,32.4763457 39.1095366,31.6422502 39.1061622,30.6158128 L39.1061622,30.6148925 C39.102481,29.5912159 38.2702261,28.762949 37.2456293,28.7654032 C35.9437164,28.7684708 34.4077414,28.7718452 33.9598638,28.7752196 C33.3978693,28.7795144 32.8156284,28.7835023 32.2244912,28.78657 C31.4919351,28.7899444 30.8974235,28.1966599 30.8974235,27.4650241 L30.8974235,26.4118981 C30.8974235,25.7977535 31.4002122,25.3017136 32.0137433,25.314291 C32.2545542,25.3191993 32.8162419,25.3317766 33.4033911,25.344354 C34.3985385,25.3664411 35.2188295,24.5651696 35.2188295,23.5691019 C35.2188295,22.5009444 34.359886,21.6309574 33.2914217,21.6174597 C31.6437841,21.5975199 29.9599481,21.5481307 28.589013,21.4631566 C27.8279277,21.4159147 27.1840269,22.0190158 27.1840269,22.7819416 L27.1840269,50.0822326 C27.1840269,51.1083633 28.0150547,51.9387776 29.0411854,51.9387776 C30.0663957,51.9387776 30.8974235,51.1083633 30.8974235,50.0822326" id="Fill-3" fill="#A8B775" mask="url(#mask-2)"></path>
                        <path d="M14.4185931,7.05898146 C13.5053522,7.05898146 12.727088,7.69613346 12.5154198,8.58483318 C11.9868628,10.8064291 10.3870806,13.4709944 7.72190176,14.1713401 C6.96173679,14.3710445 6.34053661,15.1793716 6.34053661,15.9643846 L6.34053661,15.9674523 C6.34053661,17.1770287 7.48201112,18.0733976 8.65262836,17.7672456 C9.39806858,17.5727563 10.0938128,17.2859305 10.7377136,16.9273216 C11.6218119,16.4334291 12.7108295,17.0626052 12.7108295,18.0761585 L12.7108295,19.3311362 C12.7108295,19.8087702 12.4522261,20.2489787 12.0362521,20.4839611 C10.7963058,21.1864541 9.14130584,21.4278786 6.42121594,21.4898452 C5.41134384,21.5128526 4.60301668,22.3355978 4.60301668,23.3454699 L4.60301668,23.3485375 C4.60301668,24.3887794 5.45490454,25.2262493 6.4954532,25.2041622 C8.20996571,25.1679639 9.73060241,25.0587553 11.0978563,24.7526033 C11.9248962,24.5670102 12.7108295,25.1937322 12.7108295,26.0407118 L12.7108295,26.7563957 C12.7108295,27.3901733 12.2611112,27.9334551 11.6383772,28.0549342 C9.65391103,28.4417655 7.37065524,28.6157016 3.98120297,28.6580352 C2.96580908,28.6706126 2.15042632,29.4991863 2.15042632,30.5145802 C2.15042632,31.5474597 2.99556534,32.3833957 4.02875162,32.3708184 C7.04241613,32.3324727 9.26585264,32.1941214 11.1926469,31.9020806 C11.9917711,31.781215 12.7108295,32.4002678 12.7108295,33.2089018 L12.7108295,34.3436274 C12.7108295,35.0320093 12.1822725,35.6016728 11.4957312,35.6605718 C9.22290547,35.8575153 6.70282669,35.8388026 3.56614921,35.8145681 C3.01795922,35.8102734 2.45259036,35.8062854 1.86820204,35.8026043 C0.838083411,35.7970825 0,36.6296441 0,37.6591492 C0,38.6800649 0.824278962,39.5098656 1.84519462,39.5160009 C2.42743559,39.5190686 2.99096386,39.5236701 3.53731325,39.5279648 C4.50485171,39.5347136 5.42882947,39.5426895 6.31630213,39.5426895 C8.10075718,39.5426895 9.73888508,39.512013 11.2960269,39.3991233 C12.0607933,39.3435987 12.7108295,39.9500741 12.7108295,40.7172947 L12.7108295,50.0466478 C12.7108295,51.0921047 13.5581158,51.9390843 14.6026525,51.9390843 C15.6432011,51.9390843 16.4953957,51.08781 16.4953957,50.0466478 L16.4953957,9.00847637 C16.4953957,7.93172938 15.6223411,7.05898146 14.5449805,7.05898146 L14.4185931,7.05898146" id="Fill-4" fill="#1C4456" mask="url(#mask-2)"></path>
                    </g>
                    <path d="M51.1868953,29.0258471 C51.1233948,28.9632669 51.0927183,28.8810538 51.0927183,28.7810482 L51.0927183,16.2656284 C51.0927183,16.165316 51.1233948,16.0834096 51.1868953,16.0202159 C51.2494754,15.957329 51.3307683,15.9260389 51.4313874,15.9260389 L53.7499212,15.9260389 C53.9256979,15.9260389 54.0579138,16.0011965 54.1456487,16.1521251 L58.2921983,23.1638647 C58.3173531,23.2138675 58.3492567,23.2335005 58.3869889,23.2203095 C58.4244143,23.2077322 58.443127,23.1709203 58.443127,23.1077266 L58.4244143,16.2656284 C58.4244143,16.165316 58.4557044,16.0834096 58.5182845,16.0202159 C58.581785,15.957329 58.6630778,15.9260389 58.7640037,15.9260389 L61.1767146,15.9260389 C61.2770269,15.9260389 61.3583197,15.957329 61.4215134,16.0202159 C61.4840936,16.0834096 61.5153837,16.165316 61.5153837,16.2656284 L61.5153837,28.7810482 C61.5153837,28.8810538 61.4840936,28.9632669 61.4215134,29.0258471 C61.3583197,29.0893475 61.2770269,29.1197173 61.1767146,29.1197173 L58.857874,29.1197173 C58.6943679,29.1197173 58.562152,29.0448665 58.4618397,28.8936311 L54.3152901,21.7880213 C54.2901353,21.7254411 54.2554708,21.7005931 54.2116033,21.7131705 C54.1677359,21.7254411 54.1456487,21.7631733 54.1456487,21.8257535 L54.1836877,28.7810482 C54.1836877,28.8810538 54.1517841,28.9632669 54.0892039,29.0258471 C54.0266237,29.0893475 53.9444106,29.1197173 53.844405,29.1197173 L51.4313874,29.1197173 C51.3307683,29.1197173 51.2494754,29.0893475 51.1868953,29.0258471" id="Fill-6" fill="#1C4456"></path>
                    <path d="M68.0280158,26.6606849 C68.3353948,26.4149657 68.4896979,26.0922484 68.4896979,25.689772 L68.4896979,25.275025 C68.4896979,25.1872901 68.4452169,25.1428091 68.3577887,25.1428091 L67.2644764,25.1428091 C66.7871492,25.1428091 66.4193373,25.2250222 66.1619611,25.3879147 C65.9045848,25.5517275 65.7751297,25.7968332 65.7751297,26.1229249 C65.7751297,26.3996274 65.8696135,26.6195783 66.0582743,26.7830843 C66.2466284,26.9462836 66.5104467,27.0278832 66.8497294,27.0278832 C67.3267498,27.0278832 67.7200232,26.9054838 68.0280158,26.6606849 M69.4323883,19.6489453 C70.1106469,19.9311696 70.6447257,20.3213753 71.0340111,20.8174152 C71.4236033,21.3140686 71.6183994,21.8634856 71.6183994,22.4665867 L71.6183994,28.781355 C71.6183994,28.8813605 71.5871094,28.9635737 71.5245292,29.0261538 C71.4610287,29.088734 71.3797359,29.1200241 71.2791168,29.1200241 L68.8286738,29.1200241 C68.7283614,29.1200241 68.6464551,29.088734 68.5838749,29.0261538 C68.5203744,28.9635737 68.4896979,28.8813605 68.4896979,28.781355 L68.4896979,28.4037266 C68.4896979,28.3411464 68.4740528,28.3034143 68.4427627,28.2908369 C68.4111659,28.2785663 68.3765014,28.297279 68.339076,28.3472817 C67.8359805,28.9635737 67.0258128,29.2709527 65.9073457,29.2709527 C64.9149592,29.2709527 64.1225839,29.03505 63.5326738,28.564165 C62.9415366,28.0926664 62.6467349,27.398456 62.6467349,26.4812271 C62.6467349,25.5136886 62.9826432,24.7657943 63.65538,24.2381576 C64.3271965,23.7108276 65.2974958,23.4467025 66.5665848,23.4467025 L68.3577887,23.4467025 C68.4452169,23.4467025 68.4896979,23.4025283 68.4896979,23.3141798 L68.4896979,22.9942234 C68.4896979,22.6549407 68.3792623,22.3886682 68.1596182,22.1932586 C67.9396673,21.9984625 67.6289138,21.900911 67.2267442,21.900911 C66.9374643,21.900911 66.6899045,21.9484597 66.482531,22.0429435 C66.2754643,22.1368137 66.1269898,22.2653485 66.0395616,22.4288545 C65.9763679,22.5165894 65.9171622,22.5834643 65.8607173,22.6264115 C65.8036589,22.6708925 65.7312623,22.6862308 65.6438341,22.6736534 L63.11762,22.3530834 C62.8915338,22.3282354 62.790608,22.2405005 62.8163763,22.0895718 C62.8789564,21.5496645 63.1050426,21.0622141 63.4946348,20.6287544 C63.8839203,20.1956015 64.3965255,19.8532512 65.0309166,19.6013967 C65.6653077,19.3504625 66.3788443,19.2246886 67.1706061,19.2246886 C67.9994866,19.2246886 68.7535162,19.3658007 69.4323883,19.6489453" id="Fill-7" fill="#1C4456"></path>
                    <path d="M78.8092901,21.7880213 C78.7460964,21.851215 78.6644968,21.8818916 78.5638777,21.8818916 L76.9996803,21.8818916 C76.9119453,21.8818916 76.8680778,21.9263726 76.8680778,22.0141075 L76.8680778,25.3130639 C76.8680778,26.0287479 77.1567442,26.3873568 77.7346905,26.3873568 L78.3190788,26.3873568 C78.4190843,26.3873568 78.5012975,26.4186469 78.5638777,26.4815338 C78.6270714,26.5447275 78.6583614,26.6260204 78.6583614,26.7263327 L78.6583614,28.7058906 C78.6583614,28.9068221 78.5513003,29.019405 78.3377915,29.0445598 C77.7598452,29.0697146 77.3515403,29.0829055 77.1128767,29.0829055 C76.0195644,29.0829055 75.2093967,28.9068221 74.6811464,28.5546552 C74.1535097,28.2034087 73.8829425,27.5490778 73.8709787,26.5941168 L73.8709787,22.0141075 C73.8709787,21.9263726 73.8264977,21.8818916 73.7387627,21.8818916 L72.8150918,21.8818916 C72.7150862,21.8818916 72.632873,21.851215 72.5702929,21.7880213 C72.5070992,21.7254411 72.4758091,21.6441483 72.4758091,21.5429157 L72.4758091,19.7145931 C72.4758091,19.6142808 72.5070992,19.532988 72.5702929,19.4697943 C72.632873,19.4072141 72.7150862,19.3753105 72.8150918,19.3753105 L73.7387627,19.3753105 C73.8264977,19.3753105 73.8709787,19.3311362 73.8709787,19.2437081 L73.8709787,17.113835 C73.8709787,17.0129092 73.9022688,16.9316163 73.9648489,16.8684226 C74.0274291,16.8058424 74.1096423,16.7745524 74.2096478,16.7745524 L76.5284884,16.7745524 C76.6288007,16.7745524 76.7110139,16.8058424 76.7735941,16.8684226 C76.8361742,16.9316163 76.8680778,17.0129092 76.8680778,17.113835 L76.8680778,19.2437081 C76.8680778,19.3311362 76.9119453,19.3753105 76.9996803,19.3753105 L78.5638777,19.3753105 C78.6644968,19.3753105 78.7460964,19.4072141 78.8092901,19.4697943 C78.8718703,19.532988 78.9031603,19.6142808 78.9031603,19.7145931 L78.9031603,21.5429157 C78.9031603,21.6441483 78.8718703,21.7254411 78.8092901,21.7880213" id="Fill-8" fill="#1C4456"></path>
                    <path d="M80.5103049,29.0258471 C80.4468044,28.9632669 80.4164347,28.8810538 80.4164347,28.7810482 L80.4164347,19.7145931 C80.4164347,19.6136673 80.4468044,19.5323744 80.5103049,19.4697943 C80.5728851,19.4072141 80.6550982,19.3753105 80.7557173,19.3753105 L83.2061603,19.3753105 C83.3064727,19.3753105 83.3868452,19.4072141 83.4503457,19.4697943 C83.5135394,19.5323744 83.5448295,19.6136673 83.5448295,19.7145931 L83.5448295,28.7810482 C83.5448295,28.8810538 83.5135394,28.9632669 83.4503457,29.0258471 C83.3868452,29.0893475 83.3064727,29.1197173 83.2061603,29.1197173 L80.7557173,29.1197173 C80.6550982,29.1197173 80.5728851,29.0893475 80.5103049,29.0258471 M80.6425209,18.2353698 C80.3029314,17.902836 80.1332901,17.4653883 80.1332901,16.9248675 C80.1332901,16.3975375 80.3029314,15.9705199 80.6425209,15.6435079 C80.98119,15.3168026 81.4278406,15.1532966 81.9806321,15.1532966 C82.5337303,15.1532966 82.9794606,15.3168026 83.3187433,15.6435079 C83.6583327,15.9705199 83.8273605,16.3975375 83.8273605,16.9248675 C83.8273605,17.4653883 83.6583327,17.902836 83.3187433,18.2353698 C82.9794606,18.5685171 82.5337303,18.7347841 81.9806321,18.7347841 C81.4278406,18.7347841 80.98119,18.5685171 80.6425209,18.2353698" id="Fill-9" fill="#1C4456"></path>
                    <path d="M90.3442873,26.2459379 C90.5887794,26.0137164 90.7614884,25.6959073 90.8624143,25.2937377 C90.9381854,24.9667257 90.9749972,24.6093438 90.9749972,24.2197516 C90.9749972,23.8427368 90.9311297,23.4782994 90.8433948,23.1264393 C90.7427757,22.7368471 90.5728276,22.4359101 90.3344708,22.221481 C90.0958072,22.0079722 89.79395,21.9015246 89.430126,21.9015246 C89.0531112,21.9015246 88.7478795,22.0079722 88.515658,22.221481 C88.2831297,22.4359101 88.1162493,22.7368471 88.0162437,23.1264393 C87.9278953,23.4025283 87.8840278,23.7669657 87.8840278,24.2197516 C87.8840278,24.6093438 87.92176,24.9667257 87.997531,25.2937377 C88.110114,25.6959073 88.2861974,26.0137164 88.5251677,26.2459379 C88.7638313,26.4781594 89.0656886,26.5944235 89.430126,26.5944235 C89.79395,26.5944235 90.0985681,26.4781594 90.3442873,26.2459379 M86.5554263,28.366608 C85.769493,27.7628934 85.2387887,26.9462836 84.9626997,25.916165 C84.8117711,25.4007989 84.736,24.83543 84.736,24.2197516 C84.736,23.5918026 84.8179064,22.9825663 84.9817192,22.3911223 C85.2706923,21.3987359 85.8078387,20.6223123 86.5931585,20.0633855 C87.3784782,19.5038452 88.3306784,19.2249954 89.4482252,19.2249954 C90.5541149,19.2249954 91.4903633,19.5038452 92.2566636,20.0633855 C93.0232706,20.6223123 93.5576562,21.3922938 93.8595134,22.3724096 C94.0346766,22.9377785 94.123025,23.5408795 94.123025,24.1817127 C94.123025,24.7602725 94.0540028,25.3130639 93.9156515,25.8403939 C93.6521399,26.8962808 93.1241965,27.7316033 92.3324347,28.3472817 C91.5409796,28.9632669 90.5728276,29.270646 89.430126,29.270646 C88.298468,29.270646 87.3407461,28.9694022 86.5554263,28.366608" id="Fill-10" fill="#1C4456"></path>
                    <path d="M103.161258,20.1575626 C103.783685,20.7793763 104.094745,21.6245153 104.094745,22.6926728 L104.094745,28.7807414 C104.094745,28.8816673 104.063455,28.9629601 104.000875,29.0258471 C103.937681,29.0890408 103.855468,29.1203309 103.755156,29.1203309 L101.305019,29.1203309 C101.204707,29.1203309 101.122494,29.0890408 101.059914,29.0258471 C100.99672,28.9629601 100.96543,28.8816673 100.96543,28.7807414 L100.96543,23.3715449 C100.96543,22.9313364 100.849473,22.5767155 100.616944,22.3061483 C100.384723,22.0361946 100.073049,21.9012178 99.6834569,21.9012178 C99.2941715,21.9012178 98.9797368,22.0361946 98.7419935,22.3061483 C98.5024096,22.5767155 98.3836914,22.9313364 98.3836914,23.3715449 L98.3836914,28.7807414 C98.3836914,28.8816673 98.3517878,28.9629601 98.2889008,29.0258471 C98.2257071,29.0890408 98.1444143,29.1203309 98.0441019,29.1203309 L95.5936589,29.1203309 C95.4930399,29.1203309 95.411747,29.0890408 95.3488601,29.0258471 C95.2856664,28.9629601 95.2543763,28.8816673 95.2543763,28.7807414 L95.2543763,19.7145931 C95.2543763,19.6142808 95.2856664,19.532988 95.3488601,19.4697943 C95.411747,19.4072141 95.4930399,19.3753105 95.5936589,19.3753105 L98.0441019,19.3753105 C98.1444143,19.3753105 98.2257071,19.4072141 98.2889008,19.4697943 C98.3517878,19.532988 98.3836914,19.6142808 98.3836914,19.7145931 L98.3836914,20.2425366 C98.3836914,20.3057303 98.3990297,20.3431557 98.4303197,20.3551196 C98.4613031,20.3683105 98.490139,20.3495978 98.514987,20.2986747 C99.0303531,19.5823772 99.7782475,19.2249954 100.758057,19.2249954 C101.738786,19.2249954 102.539444,19.5351353 103.161258,20.1575626" id="Fill-11" fill="#1C4456"></path>
                    <path d="M110.586824,26.6606849 C110.894816,26.4149657 111.048506,26.0922484 111.048506,25.689772 L111.048506,25.275025 C111.048506,25.1872901 111.004945,25.1428091 110.916597,25.1428091 L109.823898,25.1428091 C109.345957,25.1428091 108.978146,25.2250222 108.720769,25.3879147 C108.463393,25.5517275 108.334858,25.7968332 108.334858,26.1229249 C108.334858,26.3996274 108.429342,26.6195783 108.617082,26.7830843 C108.805437,26.9462836 109.069255,27.0278832 109.409151,27.0278832 C109.886478,27.0278832 110.278525,26.9054838 110.586824,26.6606849 M111.99089,19.6489453 C112.669148,19.9311696 113.203534,20.3213753 113.592819,20.8174152 C113.982411,21.3140686 114.177821,21.8634856 114.177821,22.4665867 L114.177821,28.781355 C114.177821,28.8813605 114.145918,28.9635737 114.083337,29.0261538 C114.020757,29.088734 113.939464,29.1200241 113.838232,29.1200241 L111.388095,29.1200241 C111.28717,29.1200241 111.205877,29.088734 111.143297,29.0261538 C111.079796,28.9635737 111.048506,28.8813605 111.048506,28.781355 L111.048506,28.4037266 C111.048506,28.3411464 111.032554,28.3034143 111.001264,28.2908369 C110.969974,28.2785663 110.935923,28.297279 110.897884,28.3472817 C110.395402,28.9635737 109.584621,29.2709527 108.466154,29.2709527 C107.473461,29.2709527 106.682006,29.03505 106.091482,28.564165 C105.500958,28.0926664 105.205543,27.398456 105.205543,26.4812271 C105.205543,25.5136886 105.542065,24.7657943 106.213881,24.2381576 C106.886618,23.7108276 107.856918,23.4467025 109.126313,23.4467025 L110.916597,23.4467025 C111.004945,23.4467025 111.048506,23.4025283 111.048506,23.3141798 L111.048506,22.9942234 C111.048506,22.6549407 110.938684,22.3886682 110.71904,22.1932586 C110.499089,21.9984625 110.187722,21.900911 109.786166,21.900911 C109.496886,21.900911 109.248713,21.9484597 109.041339,22.0429435 C108.833966,22.1368137 108.686718,22.2653485 108.598063,22.4288545 C108.534869,22.5165894 108.47597,22.5834643 108.419525,22.6264115 C108.362467,22.6708925 108.29007,22.6862308 108.202335,22.6736534 L105.677042,22.3530834 C105.450956,22.3282354 105.349416,22.2405005 105.375184,22.0895718 C105.438378,21.5496645 105.663851,21.0622141 106.054057,20.6287544 C106.442728,20.1956015 106.955334,19.8532512 107.589725,19.6013967 C108.224729,19.3504625 108.937652,19.2246886 109.729108,19.2246886 C110.558908,19.2246886 111.312324,19.3658007 111.99089,19.6489453" id="Fill-12" fill="#1C4456"></path>
                    <path d="M115.817176,29.0258471 C115.753982,28.9632669 115.723306,28.8810538 115.723306,28.7810482 L115.723306,16.2656284 C115.723306,16.165316 115.753982,16.0834096 115.817176,16.0202159 C115.879756,15.957329 115.961969,15.9260389 116.061975,15.9260389 L118.512418,15.9260389 C118.613344,15.9260389 118.694637,15.957329 118.758137,16.0202159 C118.820717,16.0834096 118.852007,16.165316 118.852007,16.2656284 L118.852007,28.7810482 C118.852007,28.8810538 118.820717,28.9632669 118.758137,29.0258471 C118.694637,29.0893475 118.613344,29.1197173 118.512418,29.1197173 L116.061975,29.1197173 C115.961969,29.1197173 115.879756,29.0893475 115.817176,29.0258471" id="Fill-13" fill="#1C4456"></path>
                    <path d="M133.421529,18.5080843 C133.358949,18.5715848 133.277043,18.6022614 133.17673,18.6022614 L127.428251,18.6022614 C127.339903,18.6022614 127.296035,18.6467424 127.296035,18.7341705 L127.296035,20.9781603 C127.296035,21.0655885 127.339903,21.109456 127.428251,21.109456 L131.065877,21.109456 C131.165882,21.109456 131.248095,21.1407461 131.310676,21.2042465 C131.373256,21.2668267 131.405159,21.3481196 131.405159,21.4490454 L131.405159,23.427683 C131.405159,23.5286089 131.373256,23.6099018 131.310676,23.6724819 C131.248095,23.7359824 131.165882,23.7672725 131.065877,23.7672725 L127.428251,23.7672725 C127.339903,23.7672725 127.296035,23.8111399 127.296035,23.8994884 L127.296035,28.781355 C127.296035,28.8813605 127.264745,28.9626534 127.201858,29.0261538 C127.138665,29.088734 127.056758,29.1200241 126.956446,29.1200241 L124.506003,29.1200241 C124.405997,29.1200241 124.324091,29.088734 124.261511,29.0261538 C124.19801,28.9626534 124.16672,28.8813605 124.16672,28.781355 L124.16672,16.2659351 C124.16672,16.1650093 124.19801,16.0837164 124.261511,16.0205227 C124.324091,15.9579425 124.405997,15.9257322 124.506003,15.9257322 L133.17673,15.9257322 C133.277043,15.9257322 133.358949,15.9579425 133.421529,16.0205227 C133.484723,16.0837164 133.515399,16.1650093 133.515399,16.2659351 L133.515399,18.2635922 C133.515399,18.3642113 133.484723,18.4455042 133.421529,18.5080843" id="Fill-14" fill="#1C4456"></path>
                    <path d="M138.177008,26.2459379 C138.421807,26.0137164 138.594209,25.6959073 138.695135,25.2937377 C138.770906,24.9667257 138.807718,24.6093438 138.807718,24.2197516 C138.807718,23.8427368 138.763851,23.4782994 138.676423,23.1264393 C138.575497,22.7368471 138.405549,22.4359101 138.167192,22.221481 C137.928528,22.0079722 137.627285,21.9015246 137.262847,21.9015246 C136.885832,21.9015246 136.580601,22.0079722 136.348379,22.221481 C136.116158,22.4359101 135.949277,22.7368471 135.848965,23.1264393 C135.760616,23.4025283 135.716749,23.7669657 135.716749,24.2197516 C135.716749,24.6093438 135.754174,24.9667257 135.829945,25.2937377 C135.942835,25.6959073 136.119532,26.0137164 136.358196,26.2459379 C136.596552,26.4781594 136.89841,26.5944235 137.262847,26.5944235 C137.627285,26.5944235 137.931289,26.4781594 138.177008,26.2459379 M134.388147,28.366608 C133.602214,27.7628934 133.07151,26.9462836 132.795421,25.916165 C132.644492,25.4007989 132.569641,24.83543 132.569641,24.2197516 C132.569641,23.5918026 132.650934,22.9825663 132.814133,22.3911223 C133.10372,21.3987359 133.64056,20.6223123 134.42588,20.0633855 C135.211199,19.5038452 136.163399,19.2249954 137.280946,19.2249954 C138.386836,19.2249954 139.323084,19.5038452 140.089691,20.0633855 C140.855992,20.6223123 141.39007,21.3922938 141.692234,22.3724096 C141.867398,22.9377785 141.955746,23.5408795 141.955746,24.1817127 C141.955746,24.7602725 141.887031,25.3130639 141.748373,25.8403939 C141.484861,26.8962808 140.956918,27.7316033 140.165462,28.3472817 C139.374007,28.9632669 138.405549,29.270646 137.262847,29.270646 C136.131189,29.270646 135.173467,28.9694022 134.388147,28.366608" id="Fill-15" fill="#1C4456"></path>
                    <path d="M149.285601,19.4510816 C149.448187,19.5388165 149.510767,19.6771677 149.473956,19.8655218 L149.059209,22.2782326 C149.046018,22.4420454 148.964725,22.5233383 148.813796,22.5233383 C148.751216,22.5233383 148.701213,22.5168962 148.662867,22.5046256 C148.512859,22.4668934 148.324198,22.4481807 148.097499,22.4481807 C147.89626,22.4481807 147.745639,22.4607581 147.645326,22.4856061 C147.256041,22.5359157 146.925348,22.6865375 146.655701,22.9377785 C146.385133,23.189633 146.25077,23.5221668 146.25077,23.936607 L146.25077,28.7810482 C146.25077,28.8819741 146.218867,28.9632669 146.156286,29.0258471 C146.093706,29.0893475 146.011493,29.1203309 145.911487,29.1203309 L143.461044,29.1203309 C143.360119,29.1203309 143.278826,29.0893475 143.216246,29.0258471 C143.153052,28.9632669 143.121455,28.8819741 143.121455,28.7810482 L143.121455,19.7145931 C143.121455,19.6136673 143.153052,19.5323744 143.216246,19.4697943 C143.278826,19.4072141 143.360119,19.3753105 143.461044,19.3753105 L145.911487,19.3753105 C146.011493,19.3753105 146.093706,19.4072141 146.156286,19.4697943 C146.218867,19.5323744 146.25077,19.6136673 146.25077,19.7145931 L146.25077,20.1293401 C146.25077,20.1925338 146.266108,20.230266 146.298012,20.2425366 C146.328689,20.255114 146.357218,20.2364013 146.382373,20.1863985 C146.885161,19.5575292 147.525688,19.2437081 148.304565,19.2437081 C148.706735,19.2437081 149.03344,19.3127303 149.285601,19.4510816" id="Fill-16" fill="#1C4456"></path>
                    <path d="M152.956971,22.8248888 C152.906968,22.9506627 152.875678,23.0445329 152.863101,23.1071131 L152.863101,23.1454588 C152.863101,23.2206163 152.906968,23.2580417 152.994703,23.2580417 L155.577362,23.2580417 C155.627365,23.2580417 155.66203,23.2427034 155.680742,23.2107998 C155.699455,23.1801233 155.702216,23.1454588 155.690559,23.1071131 L155.614788,22.8623142 C155.513862,22.5610704 155.350969,22.3254745 155.12427,22.1558332 C154.899104,21.9858851 154.609517,21.900911 154.258271,21.900911 C153.617131,21.900911 153.183057,22.2092104 152.956971,22.8248888 M155.831671,26.4339852 C156.164205,26.3149601 156.444589,26.1551353 156.670368,25.9532836 C156.746446,25.8655487 156.827739,25.8216812 156.915474,25.8216812 C156.991245,25.8216812 157.066402,25.8655487 157.14156,25.9532836 L158.31003,27.3484532 C158.385801,27.4368017 158.423226,27.517481 158.423226,27.5932521 C158.423226,27.6816006 158.385801,27.7628934 158.31003,27.838051 C157.883012,28.2911437 157.342491,28.6430037 156.689387,28.8939379 C156.036284,29.1451789 155.338699,29.2709527 154.597247,29.2709527 C153.742291,29.2709527 152.9855,29.1172632 152.326261,28.8089639 C151.666102,28.5018916 151.122207,28.0711928 150.695803,27.517481 C150.00374,26.638291 149.658935,25.5198239 149.658935,24.163 C149.658935,23.559899 149.727651,22.9945301 149.866002,22.4665867 C150.142091,21.4864708 150.682612,20.6977766 151.487258,20.1011177 C152.291597,19.504152 153.23306,19.2059759 154.314715,19.2059759 C155.57092,19.2059759 156.585701,19.5952614 157.358443,20.3744458 C158.131185,21.1533234 158.636735,22.2405005 158.876012,23.6350565 C158.925401,23.9869166 158.963747,24.3703735 158.988902,24.7848137 C158.988902,25.0108999 158.876012,25.1240964 158.649926,25.1240964 L152.956971,25.1240964 C152.920159,25.1240964 152.884881,25.1366738 152.853591,25.1618285 C152.822301,25.1866766 152.812485,25.2250222 152.825676,25.275025 L152.938259,25.6520399 C153.064339,25.9532836 153.283983,26.1888795 153.598418,26.3588276 C153.911932,26.528469 154.295389,26.613443 154.747868,26.613443 C155.137461,26.613443 155.498524,26.553317 155.831671,26.4339852" id="Fill-17" fill="#1C4456"></path>
                    <path d="M161.73476,28.9031409 C161.074601,28.658342 160.56537,28.3126172 160.207374,27.8668869 C159.849686,27.4211566 159.670228,26.9085514 159.670228,26.3302984 L159.670228,26.2364282 C159.670228,26.1358091 159.701518,26.0545162 159.765019,25.9910158 C159.827292,25.9284356 159.908892,25.8971455 160.009817,25.8971455 L162.328044,25.8971455 C162.554131,25.8971455 162.667327,25.9345709 162.667327,26.010342 L162.667327,26.1232317 C162.667327,26.3615885 162.796169,26.5600658 163.053545,26.7171297 C163.311535,26.8741937 163.641308,26.9524189 164.043784,26.9524189 C164.395031,26.9524189 164.677562,26.8932132 164.891684,26.7735746 C165.105193,26.6545496 165.212254,26.4941112 165.212254,26.292873 C165.212254,26.0919416 165.099057,25.9437739 164.872358,25.8499036 C164.646885,25.7560334 164.288583,25.664924 163.798372,25.5765755 C163.006917,25.4256469 162.36547,25.2440417 161.875872,25.0299194 C161.247616,24.766101 160.742067,24.4329537 160.357996,24.0310908 C159.974846,23.6289212 159.783731,23.0887071 159.783731,22.4104486 C159.783731,21.4297192 160.163507,20.6542159 160.923672,20.082405 C161.683837,19.5105941 162.68604,19.2249954 163.930281,19.2249954 C164.772045,19.2249954 165.510123,19.3599722 166.145128,19.6305394 C166.779519,19.9001863 167.272491,20.2805755 167.624351,20.7701733 C167.976211,21.2600778 168.152295,21.8254467 168.152295,22.4668934 C168.152295,22.5300871 168.121005,22.5828508 168.057811,22.6267183 C167.995231,22.6711993 167.913631,22.6926728 167.813012,22.6926728 L165.570556,22.6926728 C165.343856,22.6926728 165.230353,22.6552475 165.230353,22.5794764 L165.230353,22.4668934 C165.230353,22.2282298 165.11777,22.0334337 164.891684,21.8825051 C164.665598,21.7315765 164.357605,21.6558054 163.968013,21.6558054 C163.616153,21.6558054 163.330247,21.7162382 163.110603,21.8352632 C162.890039,21.9549018 162.78083,22.1211687 162.78083,22.3346775 C162.78083,22.5481863 162.900469,22.7018758 163.138826,22.7963596 C163.377489,22.8905366 163.779659,22.9939166 164.345028,23.1074198 C165.110715,23.2583485 165.627001,23.377987 165.890513,23.465722 C166.65712,23.7166562 167.257153,24.0559388 167.690613,24.4838767 C168.123766,24.9108943 168.340956,25.4827053 168.340956,26.1990028 C168.340956,27.1791186 167.954124,27.9356024 167.181382,28.469988 C166.408639,29.0040667 165.368704,29.2703392 164.061883,29.2703392 C163.169502,29.2703392 162.393999,29.1488601 161.73476,28.9031409" id="Fill-18" fill="#1C4456"></path>
                    <path d="M175.220479,21.7880213 C175.156979,21.851215 175.075686,21.8818916 174.975373,21.8818916 L173.410563,21.8818916 C173.322828,21.8818916 173.279267,21.9263726 173.279267,22.0141075 L173.279267,25.3130639 C173.279267,26.0287479 173.567627,26.3873568 174.146493,26.3873568 L174.730881,26.3873568 C174.830887,26.3873568 174.91218,26.4186469 174.975373,26.4815338 C175.037954,26.5447275 175.069551,26.6260204 175.069551,26.7263327 L175.069551,28.7058906 C175.069551,28.9068221 174.962183,29.019405 174.749594,29.0445598 C174.170728,29.0697146 173.762423,29.0829055 173.524679,29.0829055 C172.43106,29.0829055 171.620279,28.9068221 171.092335,28.5546552 C170.564392,28.2034087 170.294745,27.5490778 170.282168,26.5941168 L170.282168,22.0141075 C170.282168,21.9263726 170.237994,21.8818916 170.150565,21.8818916 L169.226894,21.8818916 C169.125968,21.8818916 169.044062,21.851215 168.981482,21.7880213 C168.917981,21.7254411 168.887612,21.6441483 168.887612,21.5429157 L168.887612,19.7145931 C168.887612,19.6142808 168.917981,19.532988 168.981482,19.4697943 C169.044062,19.4072141 169.125968,19.3753105 169.226894,19.3753105 L170.150565,19.3753105 C170.237994,19.3753105 170.282168,19.3311362 170.282168,19.2437081 L170.282168,17.113835 C170.282168,17.0129092 170.313458,16.9316163 170.376038,16.8684226 C170.439232,16.8058424 170.520525,16.7745524 170.62145,16.7745524 L172.939677,16.7745524 C173.039683,16.7745524 173.121283,16.8058424 173.184476,16.8684226 C173.247057,16.9316163 173.279267,17.0129092 173.279267,17.113835 L173.279267,19.2437081 C173.279267,19.3311362 173.322828,19.3753105 173.410563,19.3753105 L174.975373,19.3753105 C175.075686,19.3753105 175.156979,19.4072141 175.220479,19.4697943 C175.283059,19.532988 175.314349,19.6142808 175.314349,19.7145931 L175.314349,21.5429157 C175.314349,21.6441483 175.283059,21.7254411 175.220479,21.7880213" id="Fill-19" fill="#1C4456"></path>
                    <path d="M60.3469138,35.1037924 C60.2837201,35.1672929 60.2024272,35.1976627 60.1021149,35.1976627 L54.3527155,35.1976627 C54.2652873,35.1976627 54.2214198,35.2421437 54.2214198,35.3298786 L54.2214198,37.5735616 C54.2214198,37.6612966 54.2652873,37.705164 54.3527155,37.705164 L57.9912614,37.705164 C58.0912669,37.705164 58.1728665,37.7364541 58.2360602,37.7996478 C58.2986404,37.862228 58.3299305,37.9438276 58.3299305,38.0444467 L58.3299305,40.0233911 C58.3299305,40.124317 58.2986404,40.2056098 58.2360602,40.2688035 C58.1728665,40.3316905 58.0912669,40.3629805 57.9912614,40.3629805 L54.3527155,40.3629805 C54.2652873,40.3629805 54.2214198,40.4065412 54.2214198,40.4948897 L54.2214198,45.3767563 C54.2214198,45.4770686 54.1895162,45.5583614 54.1269361,45.6218619 C54.0640491,45.6844421 53.9821427,45.7157322 53.8821372,45.7157322 L51.4316942,45.7157322 C51.3307683,45.7157322 51.2494754,45.6844421 51.1868953,45.6218619 C51.1237016,45.5583614 51.0921047,45.4770686 51.0921047,45.3767563 L51.0921047,32.8613364 C51.0921047,32.7604106 51.1237016,32.6791177 51.1868953,32.615924 C51.2494754,32.5533438 51.3307683,32.5214402 51.4316942,32.5214402 L60.1021149,32.5214402 C60.2024272,32.5214402 60.2837201,32.5533438 60.3469138,32.615924 C60.4098007,32.6791177 60.4410908,32.7604106 60.4410908,32.8613364 L60.4410908,34.8589935 C60.4410908,34.9599194 60.4098007,35.0412122 60.3469138,35.1037924" id="Fill-20" fill="#1C4456"></path>
                    <path d="M65.1438063,42.841646 C65.3892187,42.6091177 65.5616209,42.2913086 65.6619333,41.8894458 C65.7377044,41.5624337 65.7751297,41.2050519 65.7751297,40.8154597 C65.7751297,40.4384449 65.7306487,40.0740074 65.6432206,39.7221474 C65.541988,39.3325551 65.3723466,39.0313114 65.1346033,38.8171891 C64.8953262,38.6036803 64.593469,38.4972326 64.229645,38.4972326 C63.8526302,38.4972326 63.548012,38.6036803 63.3157905,38.8171891 C63.0826487,39.0313114 62.9163818,39.3325551 62.8163763,39.7221474 C62.7280278,39.9982363 62.6841603,40.3626738 62.6841603,40.8154597 C62.6841603,41.2050519 62.7218925,41.5624337 62.7967433,41.8894458 C62.9102465,42.2913086 63.0863299,42.6091177 63.3246867,42.841646 C63.5633503,43.0738675 63.8652076,43.1901316 64.229645,43.1901316 C64.593469,43.1901316 64.8987006,43.0738675 65.1438063,42.841646 M61.3552521,44.962316 C60.5696256,44.3586015 60.0383077,43.5419917 59.7622187,42.511873 C59.6119036,41.996507 59.5361325,41.4311381 59.5361325,40.8154597 C59.5361325,40.1875107 59.6174254,39.5782743 59.7809314,38.9868304 C60.0705181,37.9944439 60.6073577,37.2183272 61.3926775,36.6587868 C62.1779972,36.0998601 63.1301974,35.8207034 64.2483577,35.8207034 C65.3545542,35.8207034 66.2904958,36.0998601 67.0571029,36.6587868 C67.8227896,37.2183272 68.3568684,37.9880019 68.6590324,38.9681177 C68.8348091,39.5334866 68.9231576,40.1365876 68.9231576,40.777114 C68.9231576,41.3559805 68.8535218,41.908772 68.7151705,42.4361019 C68.4516589,43.4919889 67.9237155,44.3273114 67.1322604,44.942683 C66.3404986,45.558975 65.3723466,45.8666608 64.229645,45.8666608 C63.0989073,45.8666608 62.1402651,45.5654171 61.3552521,44.962316" id="Fill-21" fill="#1C4456"></path>
                    <path d="M75.8213939,36.0651956 C75.8839741,36.0026154 75.9661872,35.9713253 76.0664995,35.9713253 L78.5166358,35.9713253 C78.6175616,35.9713253 78.6988545,36.0026154 78.762355,36.0651956 C78.8249351,36.128696 78.8562252,36.2099889 78.8562252,36.3103012 L78.8562252,45.3764495 C78.8562252,45.4773753 78.8249351,45.5586682 78.762355,45.6212484 C78.6988545,45.6844421 78.6175616,45.7157322 78.5166358,45.7157322 L76.0664995,45.7157322 C75.9661872,45.7157322 75.8839741,45.6844421 75.8213939,45.6212484 C75.7582002,45.5586682 75.7275236,45.4773753 75.7275236,45.3764495 L75.7275236,44.9049509 C75.7275236,44.8423707 75.7115718,44.8046386 75.6802817,44.7923679 C75.6483781,44.7797905 75.6143272,44.7991168 75.576595,44.848506 C75.0486515,45.5273781 74.2697739,45.8669676 73.2396552,45.8669676 C72.2840806,45.8669676 71.5113383,45.5651103 70.9208146,44.9620093 C70.330291,44.3589082 70.0351826,43.5171437 70.0351826,42.4364087 L70.0351826,36.3103012 C70.0351826,36.2099889 70.0658591,36.128696 70.1293596,36.0651956 C70.1919398,36.0026154 70.2732326,35.9713253 70.3741585,35.9713253 L72.8246015,35.9713253 C72.9252206,35.9713253 73.0065134,36.0026154 73.0694004,36.0651956 C73.1325941,36.128696 73.1638842,36.2099889 73.1638842,36.3103012 L73.1638842,41.7191909 C73.1638842,42.1597062 73.2770806,42.5115663 73.5034736,42.7750778 C73.729253,43.0395097 74.0375524,43.1717257 74.4268378,43.1717257 C74.7780843,43.1717257 75.0704319,43.0646645 75.3032669,42.8508489 C75.5357952,42.6373401 75.6769073,42.3545023 75.7275236,42.0032558 L75.7275236,36.3103012 C75.7275236,36.2099889 75.7582002,36.128696 75.8213939,36.0651956" id="Fill-22" fill="#1C4456"></path>
                    <path d="M88.3088981,36.7535774 C88.9313253,37.3750843 89.2420788,38.2202234 89.2420788,39.2886877 L89.2420788,45.3764495 C89.2420788,45.4767618 89.2101752,45.558975 89.147595,45.6215551 C89.0850148,45.6847488 89.0028017,45.7154254 88.9027961,45.7154254 L86.4517396,45.7154254 C86.3514272,45.7154254 86.2695209,45.6847488 86.2075542,45.6215551 C86.1443605,45.558975 86.1130704,45.4767618 86.1130704,45.3764495 L86.1130704,39.9675598 C86.1130704,39.5270445 85.9968063,39.1724235 85.7636645,38.9018563 C85.531443,38.6322095 85.2206895,38.4972326 84.8310973,38.4972326 C84.4408916,38.4972326 84.1270704,38.6322095 83.8893272,38.9018563 C83.65005,39.1724235 83.531025,39.5270445 83.531025,39.9675598 L83.531025,45.3764495 C83.531025,45.4767618 83.4985079,45.558975 83.4365412,45.6215551 C83.3730408,45.6847488 83.2917479,45.7154254 83.1911288,45.7154254 L80.7406858,45.7154254 C80.6403735,45.7154254 80.5584671,45.6847488 80.4958869,45.6215551 C80.433,45.558975 80.4017099,45.4767618 80.4017099,45.3764495 L80.4017099,36.3103012 C80.4017099,36.2102956 80.433,36.128696 80.4958869,36.0655023 C80.5584671,36.0029222 80.6403735,35.9710185 80.7406858,35.9710185 L83.1911288,35.9710185 C83.2917479,35.9710185 83.3730408,36.0029222 83.4365412,36.0655023 C83.4985079,36.128696 83.531025,36.2102956 83.531025,36.3103012 L83.531025,36.8382447 C83.531025,36.9014384 83.5457498,36.938557 83.5776534,36.9511344 C83.6089435,36.9643253 83.6374727,36.9446923 83.6626274,36.8943828 C84.1779935,36.178392 84.9255811,35.8207034 85.9050834,35.8207034 C86.8858128,35.8207034 87.686164,36.1308434 88.3088981,36.7535774" id="Fill-23" fill="#1C4456"></path>
                    <path d="M96.5636515,40.8528851 C96.5636515,40.1614356 96.4510686,39.6086441 96.2243689,39.1942039 C95.9605505,38.7668795 95.5961131,38.5533707 95.1310565,38.5533707 C94.641152,38.5533707 94.2641372,38.7730148 94.0006256,39.2129166 C93.7745394,39.6273568 93.6613429,40.174013 93.6613429,40.8528851 C93.6613429,41.4943318 93.7674838,42.0152196 93.9812994,42.417696 C94.2454245,42.8824458 94.6285746,43.1146673 95.1310565,43.1146673 C95.6086905,43.1146673 95.97957,42.8763105 96.2430816,42.3983698 C96.4572039,41.9962002 96.5636515,41.4817544 96.5636515,40.8528851 M96.6771548,32.6156172 C96.7397349,32.5530371 96.8210278,32.521747 96.9219537,32.521747 L99.3723967,32.521747 C99.4724022,32.521747 99.5543086,32.5530371 99.6171956,32.6156172 C99.6803892,32.6788109 99.7110658,32.7610241 99.7110658,32.8613364 L99.7110658,45.3767563 C99.7110658,45.4767618 99.6803892,45.558975 99.6171956,45.6215551 C99.5543086,45.6847488 99.4724022,45.7154254 99.3723967,45.7154254 L96.9219537,45.7154254 C96.8210278,45.7154254 96.7397349,45.6847488 96.6771548,45.6215551 C96.6139611,45.558975 96.5823642,45.4767618 96.5823642,45.3767563 L96.5823642,44.9245839 C96.5823642,44.8613902 96.5664124,44.823658 96.5360426,44.8104671 C96.5038323,44.79881 96.4697813,44.8175227 96.4314356,44.8675255 C95.9544152,45.5332067 95.2381177,45.866354 94.2828499,45.866354 C93.4665468,45.866354 92.7119036,45.5964004 92.0210677,45.0558795 C91.3305385,44.5156654 90.8587331,43.8186942 90.6077989,42.9640454 C90.4068675,42.348367 90.3059416,41.6256274 90.3059416,40.7958267 C90.3059416,39.9040593 90.4381576,39.1126043 90.7016691,38.4214615 C90.9903355,37.6422771 91.4584597,37.0115672 92.1060417,36.5274912 C92.7536237,36.0434152 93.4782039,35.8013772 94.2828499,35.8013772 C95.2381177,35.8013772 95.9544152,36.0906571 96.4314356,36.6686033 C96.4697813,36.7186061 96.5038323,36.7373188 96.5360426,36.7247414 C96.5664124,36.7124708 96.5823642,36.6747386 96.5823642,36.6121585 L96.5823642,32.8613364 C96.5823642,32.7610241 96.6139611,32.6788109 96.6771548,32.6156172" id="Fill-24" fill="#1C4456"></path>
                    <path d="M106.194862,43.2560862 C106.503161,43.0106738 106.656851,42.6879564 106.656851,42.2851733 L106.656851,41.8707331 C106.656851,41.7829981 106.612983,41.7385171 106.524635,41.7385171 L105.432243,41.7385171 C104.954302,41.7385171 104.586184,41.8207303 104.328807,41.983316 C104.071738,42.1474356 103.942896,42.3922345 103.942896,42.718633 C103.942896,42.9953355 104.036766,43.2149796 104.225427,43.3784856 C104.413781,43.5419917 104.677293,43.6235913 105.017496,43.6235913 C105.494516,43.6235913 105.886869,43.5011918 106.194862,43.2560862 M107.599541,36.2443466 C108.277493,36.5268777 108.811572,36.9170834 109.201164,37.4128165 C109.590756,37.9097766 109.786166,38.4591937 109.786166,39.061988 L109.786166,45.3767563 C109.786166,45.4770686 109.754262,45.5592817 109.691375,45.6215551 C109.628182,45.6841353 109.546889,45.7154254 109.446883,45.7154254 L106.99644,45.7154254 C106.895514,45.7154254 106.813301,45.6841353 106.750721,45.6215551 C106.688141,45.5592817 106.656851,45.4770686 106.656851,45.3767563 L106.656851,44.9991279 C106.656851,44.9365477 106.640899,44.8991223 106.609609,44.8865449 C106.578319,44.8739676 106.544268,44.8936006 106.505922,44.9429898 C106.003747,45.5592817 105.192659,45.8666608 104.074192,45.8666608 C103.081805,45.8666608 102.29035,45.6307581 101.699827,45.159873 C101.109303,44.688988 100.813581,43.994164 100.813581,43.0766284 C100.813581,42.1090899 101.15041,41.3615023 101.822226,40.8335589 C102.494656,40.3065357 103.465262,40.0421038 104.734351,40.0421038 L106.524635,40.0421038 C106.612983,40.0421038 106.656851,39.9982363 106.656851,39.9098879 L106.656851,39.5899314 C106.656851,39.2506487 106.546108,38.9840695 106.327385,38.7886599 C106.107434,38.5941705 105.79576,38.4966191 105.393897,38.4966191 C105.10431,38.4966191 104.856751,38.543861 104.649684,38.6386515 C104.44231,38.7325218 104.294756,38.8610565 104.206715,39.0245626 C104.143214,39.1119907 104.084008,39.1788656 104.02787,39.2221196 C103.970812,39.2666006 103.898415,39.2825524 103.81068,39.2693614 L101.285386,38.9487915 C101.05838,38.9236367 100.957761,38.8362085 100.983529,38.6849731 C101.046723,38.1453726 101.272196,37.6585357 101.662401,37.2244625 C102.051073,36.7913095 102.563678,36.4489592 103.19807,36.1971047 C103.833074,35.9461705 104.545997,35.8200899 105.337452,35.8200899 C106.167253,35.8200899 106.920669,35.961202 107.599541,36.2443466" id="Fill-25" fill="#1C4456"></path>
                    <path d="M116.886561,38.3834226 C116.82306,38.4469231 116.741767,38.4775996 116.641762,38.4775996 L115.077258,38.4775996 C114.988909,38.4775996 114.945042,38.5220806 114.945042,38.6095088 L114.945042,41.9084652 C114.945042,42.6241492 115.233708,42.9830649 115.812575,42.9830649 L116.396656,42.9830649 C116.496968,42.9830649 116.578261,43.014355 116.641762,43.0769351 C116.704342,43.1404356 116.735632,43.2217285 116.735632,43.3220408 L116.735632,45.3012919 C116.735632,45.5025301 116.628264,45.6151131 116.415676,45.6399611 C115.836809,45.6657294 115.428504,45.6783068 115.190761,45.6783068 C114.097449,45.6783068 113.286361,45.5025301 112.758417,45.1503633 C112.230474,44.7991168 111.96052,44.1447859 111.947943,43.1895181 L111.947943,38.6095088 C111.947943,38.5220806 111.904382,38.4775996 111.816647,38.4775996 L110.892976,38.4775996 C110.79205,38.4775996 110.710144,38.4469231 110.647563,38.3834226 C110.58437,38.3208424 110.553386,38.2395496 110.553386,38.1386237 L110.553386,36.3103012 C110.553386,36.2099889 110.58437,36.128696 110.647563,36.0651956 C110.710144,36.0026154 110.79205,35.9707118 110.892976,35.9707118 L111.816647,35.9707118 C111.904382,35.9707118 111.947943,35.9268443 111.947943,35.8394161 L111.947943,33.7095431 C111.947943,33.6086172 111.979233,33.5273244 112.04212,33.4638239 C112.105313,33.4015505 112.186606,33.3702604 112.287532,33.3702604 L114.605759,33.3702604 C114.706685,33.3702604 114.787978,33.4015505 114.850558,33.4638239 C114.913752,33.5273244 114.945042,33.6086172 114.945042,33.7095431 L114.945042,35.8394161 C114.945042,35.9268443 114.988909,35.9707118 115.077258,35.9707118 L116.641762,35.9707118 C116.741767,35.9707118 116.82306,36.0026154 116.886561,36.0651956 C116.949141,36.128696 116.980431,36.2099889 116.980431,36.3103012 L116.980431,38.1386237 C116.980431,38.2395496 116.949141,38.3208424 116.886561,38.3834226" id="Fill-26" fill="#1C4456"></path>
                    <path d="M118.593404,45.6215551 C118.530824,45.558975 118.499534,45.4767618 118.499534,45.3764495 L118.499534,36.3103012 C118.499534,36.2102956 118.530824,36.128696 118.593404,36.0655023 C118.656598,36.0029222 118.738197,35.9710185 118.839123,35.9710185 L121.289566,35.9710185 C121.389572,35.9710185 121.470865,36.0029222 121.534058,36.0655023 C121.596639,36.128696 121.628235,36.2102956 121.628235,36.3103012 L121.628235,45.3764495 C121.628235,45.4767618 121.596639,45.558975 121.534058,45.6215551 C121.470865,45.6847488 121.389572,45.7154254 121.289566,45.7154254 L118.839123,45.7154254 C118.738197,45.7154254 118.656598,45.6847488 118.593404,45.6215551 M118.72562,34.8307711 C118.386337,34.498544 118.216389,34.0610964 118.216389,33.5205755 C118.216389,32.9932456 118.386337,32.566228 118.72562,32.2392159 C119.065209,31.9125107 119.51094,31.7490046 120.063731,31.7490046 C120.616829,31.7490046 121.06348,31.9125107 121.402149,32.2392159 C121.741432,32.566228 121.911073,32.9932456 121.911073,33.5205755 C121.911073,34.0610964 121.741432,34.498544 121.402149,34.8307711 C121.06348,35.1639184 120.616829,35.3301854 120.063731,35.3301854 C119.51094,35.3301854 119.065209,35.1639184 118.72562,34.8307711" id="Fill-27" fill="#1C4456"></path>
                    <path d="M128.423399,42.841646 C128.668504,42.6091177 128.840906,42.2913086 128.941832,41.8894458 C129.017603,41.5624337 129.054415,41.2050519 129.054415,40.8154597 C129.054415,40.4384449 129.010548,40.0740074 128.922813,39.7221474 C128.822194,39.3325551 128.652246,39.0313114 128.413889,38.8171891 C128.175225,38.6036803 127.873981,38.4972326 127.509544,38.4972326 C127.132529,38.4972326 126.827297,38.6036803 126.595076,38.8171891 C126.362854,39.0313114 126.195667,39.3325551 126.095662,39.7221474 C126.007313,39.9982363 125.963446,40.3626738 125.963446,40.8154597 C125.963446,41.2050519 126.001791,41.5624337 126.076642,41.8894458 C126.189532,42.2913086 126.366229,42.6091177 126.604892,42.841646 C126.843249,43.0738675 127.145107,43.1901316 127.509544,43.1901316 C127.873981,43.1901316 128.177986,43.0738675 128.423399,42.841646 M124.634844,44.962316 C123.848911,44.3586015 123.318207,43.5419917 123.042118,42.511873 C122.891189,41.996507 122.816338,41.4311381 122.816338,40.8154597 C122.816338,40.1875107 122.897631,39.5782743 123.061751,38.9868304 C123.350417,37.9944439 123.887257,37.2183272 124.672576,36.6587868 C125.457896,36.0998601 126.410096,35.8207034 127.527643,35.8207034 C128.633533,35.8207034 129.569781,36.0998601 130.336388,36.6587868 C131.102689,37.2183272 131.636767,37.9880019 131.938931,38.9681177 C132.114095,39.5334866 132.202443,40.1365876 132.202443,40.777114 C132.202443,41.3559805 132.133728,41.908772 131.99507,42.4361019 C131.731558,43.4919889 131.203614,44.3273114 130.412159,44.942683 C129.620704,45.558975 128.652246,45.8666608 127.509544,45.8666608 C126.377886,45.8666608 125.420164,45.5654171 124.634844,44.962316" id="Fill-28" fill="#1C4456"></path>
                    <path d="M141.277794,36.7535774 C141.900222,37.3750843 142.211282,38.2202234 142.211282,39.2886877 L142.211282,45.3764495 C142.211282,45.4767618 142.179992,45.558975 142.117411,45.6215551 C142.053911,45.6847488 141.971698,45.7154254 141.871692,45.7154254 L139.421249,45.7154254 C139.321244,45.7154254 139.239031,45.6847488 139.17645,45.6215551 C139.113257,45.558975 139.081967,45.4767618 139.081967,45.3764495 L139.081967,39.9675598 C139.081967,39.5270445 138.965703,39.1724235 138.733481,38.9018563 C138.500646,38.6322095 138.189586,38.4972326 137.799994,38.4972326 C137.410401,38.4972326 137.095967,38.6322095 136.858223,38.9018563 C136.618946,39.1724235 136.500228,39.5270445 136.500228,39.9675598 L136.500228,45.3764495 C136.500228,45.4767618 136.468018,45.558975 136.405437,45.6215551 C136.342244,45.6847488 136.260951,45.7154254 136.160639,45.7154254 L133.710196,45.7154254 C133.609576,45.7154254 133.527363,45.6847488 133.464783,45.6215551 C133.402203,45.558975 133.370913,45.4767618 133.370913,45.3764495 L133.370913,36.3103012 C133.370913,36.2102956 133.402203,36.128696 133.464783,36.0655023 C133.527363,36.0029222 133.609576,35.9710185 133.710196,35.9710185 L136.160639,35.9710185 C136.260951,35.9710185 136.342244,36.0029222 136.405437,36.0655023 C136.468018,36.128696 136.500228,36.2102956 136.500228,36.3103012 L136.500228,36.8382447 C136.500228,36.9014384 136.515259,36.938557 136.54655,36.9511344 C136.57784,36.9643253 136.606676,36.9446923 136.631524,36.8943828 C137.14689,36.178392 137.894477,35.8207034 138.874593,35.8207034 C139.855323,35.8207034 140.655981,36.1308434 141.277794,36.7535774" id="Fill-29" fill="#1C4456"></path>
                </g>
            </g>
        </g>
    </g>
</svg>